<?xml version="1.0" encoding="utf-8"?>
<!-- Generator: Adobe Illustrator 27.5.0, SVG Export Plug-In . SVG Version: 6.00 Build 0)  -->
<svg version="1.1" id="Layer_1" xmlns="http://www.w3.org/2000/svg" xmlns:xlink="http://www.w3.org/1999/xlink" x="0px" y="0px"
	 viewBox="0 0 2000 2000" style="enable-background:new 0 0 2000 2000;" xml:space="preserve">
<rect style="fill-rule:evenodd;clip-rule:evenodd;fill:#FFFFFF;" width="2000" height="2000"/>
<g>
	<defs>
		<path id="SVGID_1_" d="M1344.859,854.614c0,196.279-159.116,355.395-355.395,355.395c-131.8,0-246.841-71.748-308.203-178.315
			c55.086,76.513,144.917,126.34,246.396,126.34c167.574,0,303.42-135.845,303.42-303.421s-135.847-303.42-303.42-303.42
			c-101.479,0-191.31,49.827-246.396,126.34c61.362-106.567,176.403-178.315,308.203-178.315
			C1185.743,499.219,1344.859,658.335,1344.859,854.614"/>
	</defs>
	<clipPath id="SVGID_00000089571130550369389760000005612811106261191579_">
		<use xlink:href="#SVGID_1_"  style="overflow:visible;"/>
	</clipPath>
	
		<linearGradient id="SVGID_00000006666531886671232160000009302884696875374494_" gradientUnits="userSpaceOnUse" x1="632.6669" y1="854.6139" x2="1556.9597" y2="854.6139">
		<stop  offset="0" style="stop-color:#021B8C"/>
		<stop  offset="0.1533" style="stop-color:#042B98"/>
		<stop  offset="0.4529" style="stop-color:#0955B6"/>
		<stop  offset="0.8659" style="stop-color:#1298E6"/>
		<stop  offset="1" style="stop-color:#15AFF7"/>
	</linearGradient>
	
		<rect x="681.261" y="499.219" style="clip-path:url(#SVGID_00000089571130550369389760000005612811106261191579_);fill:url(#SVGID_00000006666531886671232160000009302884696875374494_);" width="663.598" height="710.79"/>
</g>
<g>
	<defs>
		<path id="SVGID_00000063601757522631878610000003734034973775058066_" d="M775.554,581.869
			c28.078-15.67,58.55-26.971,90.409-33.37c119.576-37.855,253.878-2.871,339.445,95.869c104.564,120.663,104.564,299.829,0,420.492
			c-85.568,98.74-219.869,133.724-339.445,95.869c-31.859-6.399-62.331-17.7-90.409-33.37
			c59.998,47.067,134.893,73.832,213.91,73.832c191.412,0,346.577-155.165,346.577-346.577
			c0-191.412-155.165-346.577-346.577-346.577C910.447,508.037,835.552,534.802,775.554,581.869"/>
	</defs>
	<clipPath id="SVGID_00000123438240559567223900000005282297055307927442_">
		<use xlink:href="#SVGID_00000063601757522631878610000003734034973775058066_"  style="overflow:visible;"/>
	</clipPath>
	
		<linearGradient id="SVGID_00000106134240094818618680000011157380750266116021_" gradientUnits="userSpaceOnUse" x1="632.6667" y1="854.614" x2="1556.9591" y2="854.614">
		<stop  offset="0" style="stop-color:#021B8C"/>
		<stop  offset="0.3374" style="stop-color:#0A58B8"/>
		<stop  offset="0.6388" style="stop-color:#1087DA"/>
		<stop  offset="0.8687" style="stop-color:#14A4EF"/>
		<stop  offset="1" style="stop-color:#15AFF7"/>
	</linearGradient>
	
		<rect x="775.554" y="508.037" style="clip-path:url(#SVGID_00000123438240559567223900000005282297055307927442_);fill:url(#SVGID_00000106134240094818618680000011157380750266116021_);" width="560.486" height="693.154"/>
</g>
<g>
	<defs>
		<path id="SVGID_00000097490719654844936900000002451728117378081170_" d="M1122.354,805.479L1122.354,805.479v49.135v49.135
			h-49.135h-63.165v112.302h-49.135h-49.135v-49.135v-63.167H799.481v-49.135v-49.135h112.301V693.177h49.135h49.135v49.135v63.167
			H1122.354z M1147.211,1016.051c-49.615,67.363-129.474,111.08-219.554,111.08c-150.508,0-272.517-122.01-272.517-272.517
			c0-150.507,122.009-272.517,272.517-272.517c90.08,0,169.94,43.717,219.554,111.081c-44.512-50.043-109.382-81.581-181.628-81.581
			c-134.215,0-243.018,108.803-243.018,243.018s108.803,243.018,243.018,243.018
			C1037.829,1097.632,1102.699,1066.094,1147.211,1016.051z"/>
	</defs>
	<clipPath id="SVGID_00000160177929563423712200000006742018592217113233_">
		<use xlink:href="#SVGID_00000097490719654844936900000002451728117378081170_"  style="overflow:visible;"/>
	</clipPath>
	
		<linearGradient id="SVGID_00000024681725972723806310000006814901166103771786_" gradientUnits="userSpaceOnUse" x1="582.0833" y1="854.614" x2="1344.8776" y2="854.614">
		<stop  offset="0" style="stop-color:#045304"/>
		<stop  offset="0.1541" style="stop-color:#0D5D05"/>
		<stop  offset="0.4142" style="stop-color:#277708"/>
		<stop  offset="0.7464" style="stop-color:#4FA20C"/>
		<stop  offset="1" style="stop-color:#73C710"/>
	</linearGradient>
	
		<rect x="655.14" y="582.097" style="clip-path:url(#SVGID_00000160177929563423712200000006742018592217113233_);fill:url(#SVGID_00000024681725972723806310000006814901166103771786_);" width="492.071" height="545.034"/>
</g>
<g>
	<defs>
		<path id="SVGID_00000093167491619587864580000001114627567318132148_" d="M1116.266,811.566h-112.301V699.265h-86.097v112.302
			h-112.3v86.095h112.3v112.302h86.097V897.661h112.301V811.566z M1064.321,1083.37c-30.782,13.291-64.29,20.349-98.738,20.349
			c-137.575,0-249.104-111.53-249.104-249.105s111.529-249.105,249.104-249.105c34.448,0,67.956,7.058,98.738,20.349
			c-40.698-24.341-87.724-37.674-136.664-37.674c-147.148,0-266.43,119.283-266.43,266.43c0,147.147,119.282,266.43,266.43,266.43
			C976.597,1121.044,1023.623,1107.711,1064.321,1083.37z"/>
	</defs>
	<clipPath id="SVGID_00000013872737850562388120000005093545450109847485_">
		<use xlink:href="#SVGID_00000093167491619587864580000001114627567318132148_"  style="overflow:visible;"/>
	</clipPath>
	
		<linearGradient id="SVGID_00000114062082795766784390000008410078136905112977_" gradientUnits="userSpaceOnUse" x1="527.0836" y1="854.614" x2="1254.4587" y2="854.614">
		<stop  offset="0" style="stop-color:#045304"/>
		<stop  offset="0.1541" style="stop-color:#0D5D05"/>
		<stop  offset="0.4142" style="stop-color:#277708"/>
		<stop  offset="0.7464" style="stop-color:#4FA20C"/>
		<stop  offset="1" style="stop-color:#73C710"/>
	</linearGradient>
	
		<rect x="661.227" y="588.184" style="clip-path:url(#SVGID_00000013872737850562388120000005093545450109847485_);fill:url(#SVGID_00000114062082795766784390000008410078136905112977_);" width="455.039" height="532.859"/>
</g>
<path style="fill:#191A1C;" d="M1482.024,1386.487h-52.81v-21.232h50.929v-16.527h-50.929v-21.769h52.81v-17.202h-70.414
	c0,31.4,0,62.889,0,94.199h70.414V1386.487z M1357.019,1326.286c11.155,0,16.127,7.548,16.127,15.119
	c0,7.569-4.839,15.117-16.127,15.117h-27.009v-30.236H1357.019z M1395.587,1402.747l-28.49-32.115
	c17.873-3.628,23.786-16.663,23.786-29.63c0-16.328-11.69-31.109-33.865-31.244c-14.915,0.135-29.831,0-44.746,0v94.199h17.737
	v-31.445h17.067l27.413,31.445h21.098V1402.747z M1260.773,1369.69h-34.938l17.469-40.134L1260.773,1369.69z M1275.824,1403.957
	h19.35l-42.195-94.199h-19.35l-42.194,94.199h19.215l8.062-17.738h49.183L1275.824,1403.957z M1174.2,1379.904
	c-6.18,6.181-15.454,9.54-23.649,9.54c-23.248,0-32.25-16.259-32.385-31.846c-0.135-15.723,9.674-32.654,32.385-32.654
	c8.195,0,16.528,2.822,22.71,8.869l11.824-11.422c-9.676-9.54-21.769-14.378-34.534-14.378c-33.997,0-49.988,24.993-49.855,49.585
	c0.135,24.455,14.916,48.509,49.855,48.509c13.572,0,26.068-4.434,35.744-13.976L1174.2,1379.904z M1077.685,1403.957v-93.928
	h-17.603v39.64h-46.226v-39.64h-17.738v93.928h17.738v-37.895h46.226v37.895H1077.685z M928.629,1403.957h17.737v-78.073h29.833
	v-16.125c-27.279,0-50.257,0-77.403,0v16.125h29.833V1403.957z M830.635,1309.758v94.199h66.113v-16.394h-48.375v-77.805H830.635z
	 M777.791,1369.69h-34.939l17.47-40.134L777.791,1369.69z M792.841,1403.957h19.35l-42.195-94.199h-19.35l-42.193,94.199h19.214
	l8.063-17.738h49.181L792.841,1403.957z M695.385,1386.487h-52.81v-21.232h50.929v-16.527h-50.929v-21.769h52.81v-17.202h-70.414
	c0,31.4,0,62.889,0,94.199h70.414V1386.487z M599.54,1403.957v-93.928h-17.602v39.64h-46.228v-39.64h-17.736v93.928h17.736v-37.895
	h46.228v37.895H599.54z"/>
<path style="fill:#191A1C;" d="M1224.404,1478.136l-27.511-34.864h-8.581v56.225h10.586v-37.911l29.517,37.911h6.576v-56.225
	h-10.587V1478.136z M1145.542,1451.855c13.233,0,18.527,10.586,18.366,20.052c-0.161,9.223-5.133,19.169-18.366,19.169
	c-13.234,0-18.207-9.865-18.449-19.09C1126.854,1462.522,1132.308,1451.855,1145.542,1451.855z M1145.542,1442.229
	c-19.41,0-28.874,14.838-28.874,29.597c0,14.758,9.144,28.955,28.874,28.955c19.729,0,28.633-14.517,28.794-29.035
	C1174.496,1457.067,1164.872,1442.229,1145.542,1442.229z M1100.606,1485.14c-3.69,3.691-9.223,5.695-14.116,5.695
	c-13.875,0-19.249-9.705-19.33-19.009c-0.079-9.385,5.776-19.49,19.33-19.49c4.893,0,9.866,1.684,13.556,5.294l7.057-6.818
	c-5.773-5.694-12.993-8.583-20.613-8.583c-20.292,0-29.836,14.92-29.756,29.597c0.079,14.598,8.902,28.955,29.756,28.955
	c8.102,0,15.56-2.647,21.336-8.342L1100.606,1485.14z M1042.999,1499.497v-56.225h-10.506v56.225H1042.999z M974.243,1451.855
	c13.234,0,18.527,10.586,18.366,20.052c-0.159,9.223-5.132,19.169-18.366,19.169c-13.234,0-18.207-9.865-18.448-19.09
	C955.556,1462.522,961.009,1451.855,974.243,1451.855z M974.243,1442.229c-19.41,0-28.873,14.838-28.873,29.597
	c0,14.758,9.143,28.955,28.873,28.955c19.73,0,28.633-14.517,28.794-29.035C1003.198,1457.067,993.573,1442.229,974.243,1442.229z
	 M932.276,1450.33c-5.775-5.695-13.315-8.582-20.853-8.582c-19.812,0-29.677,14.598-29.677,30.398
	c0,14.759,8.583,28.635,29.677,28.635c9.866,0,16.843-3.771,22.377-10.107v-23.661h-24.062v9.464h14.357v9.946
	c-4.412,3.529-8.262,4.492-12.672,4.492c-13.957,0-19.331-9.545-19.331-18.769c0-11.55,7.299-20.693,19.331-20.693
	c4.891,0,10.507,2.004,14.276,5.614L932.276,1450.33z M842.025,1451.855c13.233,0,18.527,10.586,18.366,20.052
	c-0.16,9.223-5.133,19.169-18.366,19.169c-13.235,0-18.208-9.865-18.449-19.09C823.336,1462.522,828.789,1451.855,842.025,1451.855z
	 M842.025,1442.229c-19.411,0-28.875,14.838-28.875,29.597c0,14.758,9.143,28.955,28.875,28.955
	c19.729,0,28.633-14.517,28.793-29.035C870.978,1457.067,861.354,1442.229,842.025,1442.229z M765.005,1443.272v56.225h39.462
	v-9.784h-28.875v-46.441H765.005z"/>
</svg>
