<?xml version="1.0" encoding="utf-8"?>
<!-- Generator: Adobe Illustrator 27.5.0, SVG Export Plug-In . SVG Version: 6.00 Build 0)  -->
<svg version="1.1" id="PRINT" xmlns="http://www.w3.org/2000/svg" xmlns:xlink="http://www.w3.org/1999/xlink" x="0px" y="0px"
	 viewBox="0 0 500 500" style="enable-background:new 0 0 500 500;" xml:space="preserve">
<g>
	
		<rect id="CUSTOM-Background_00000042731807059305402050000012246196085150075786_" style="fill:#EDEFF7;" width="500" height="500"/>
	<g id="CUSTOM-Group">
		<g>
			<g>
				<path style="fill:#6173BA;" d="M125.788,277.144c1.335-1.307,3.476-1.285,4.784,0.049l0.096,0.098
					c1.307,1.335,1.285,3.476-0.049,4.784c-0.658,0.645-1.513,0.966-2.367,0.966c-0.877,0-1.754-0.339-2.417-1.015l-0.096-0.098
					C124.431,280.593,124.453,278.452,125.788,277.144z"/>
			</g>
		</g>
		<g>
			<g>
				<g>
					<path style="fill:#F792AD;" d="M89.397,241.678h8.99v-8.99c0-1.868,1.515-3.383,3.383-3.383c1.868,0,3.383,1.515,3.383,3.383
						v8.99h8.99c1.868,0,3.383,1.514,3.383,3.383c0,1.868-1.515,3.383-3.383,3.383h-8.99v8.99c0,1.868-1.515,3.383-3.383,3.383
						c-1.868,0-3.383-1.514-3.383-3.383v-8.99h-8.99c-1.868,0-3.383-1.514-3.383-3.383
						C86.014,243.192,87.528,241.678,89.397,241.678z"/>
				</g>
			</g>
		</g>
		<g>
			<g>
				<path style="fill:#6173BA;" d="M72,245.06c0,16.415,13.355,29.77,29.77,29.77s29.77-13.355,29.77-29.77
					c0-16.415-13.355-29.77-29.77-29.77c-1.316,0-2.611,0.087-3.882,0.253c3.808-18.59,19.83-32.18,38.675-32.18
					c10.955,0,21.143,4.503,28.687,12.68c0.64,0.694,1.542,1.089,2.487,1.089c0.944,0,1.846-0.395,2.486-1.089
					c7.544-8.176,17.731-12.68,28.687-12.68c21.797,0,39.53,18.228,39.53,40.632c0,4.92-1.788,10.739-5.285,17.341h-31.74
					l-8.323-29.011c-0.412-1.437-1.719-2.433-3.213-2.45c-1.498-0.021-2.823,0.948-3.269,2.375l-16.504,52.877l-6.577-21.077
					c-0.441-1.413-1.749-2.375-3.229-2.375h-17.591c-1.868,0-3.383,1.514-3.383,3.383c0,1.868,1.515,3.383,3.383,3.383h15.103
					l9.065,29.05c0.441,1.413,1.749,2.375,3.229,2.375c1.48,0,2.788-0.962,3.229-2.375l16.368-52.441l5.911,20.603
					c0.416,1.45,1.742,2.45,3.252,2.45h30.286c-6.054,9.321-15.01,19.925-26.708,31.562c-14.612,14.535-29.396,26.528-34.706,30.73
					c-4.469-3.534-15.642-12.581-27.744-23.992c-1.36-1.282-3.501-1.219-4.782,0.141c-1.282,1.359-1.219,3.5,0.141,4.782
					c15.869,14.961,30.188,25.942,30.331,26.051c0.607,0.464,1.331,0.695,2.055,0.695c0.724,0,1.449-0.232,2.055-0.695
					c0.187-0.143,18.91-14.507,37.374-32.866c13.624-13.547,23.616-25.711,29.934-36.408h4.723c1.868,0,3.383-1.515,3.383-3.383
					c0-1.868-1.515-3.383-3.383-3.383h-1.12c2.997-6.389,4.503-12.177,4.503-17.34c0-26.135-20.768-47.398-46.296-47.398
					c-11.697,0-22.639,4.36-31.173,12.352c-8.534-7.992-19.476-12.352-31.173-12.352c-23.172,0-42.694,17.472-45.854,40.825
					C79.755,221.822,72,232.552,72,245.06z M78.766,245.06c0-12.684,10.32-23.004,23.004-23.004
					c12.684,0,23.004,10.32,23.004,23.004c0,12.684-10.32,23.004-23.004,23.004C89.085,268.064,78.766,257.745,78.766,245.06z"/>
			</g>
		</g>
	</g>
	
		<text transform="matrix(1 0 0 1 234.5757 291.0966)" style="fill:#F792AD; font-family:'ConcertOne-Regular'; font-size:49.5144px;">mediplus</text>
	<text transform="matrix(1 0 0 1 236.7534 318.1982)" style="fill:#6173BA; font-family:'Nunito-SemiBold'; font-size:18.923px;">CARDIOLOGY CLINIC</text>
</g>
</svg>
