<?xml version="1.0" encoding="utf-8"?>
<!-- Generator: Adobe Illustrator 27.5.0, SVG Export Plug-In . SVG Version: 6.00 Build 0)  -->
<svg version="1.1" id="PRINT" xmlns="http://www.w3.org/2000/svg" xmlns:xlink="http://www.w3.org/1999/xlink" x="0px" y="0px"
	 viewBox="0 0 500 500" style="enable-background:new 0 0 500 500;" xml:space="preserve">
<g>
	<rect id="CUSTOM-Background" style="fill:#F4F1F1;" width="500" height="500"/>
	<g id="CUSTOM-Group">
		<circle style="fill:#FF4A4A;" cx="250.587" cy="190.001" r="111.694"/>
		<path style="fill:#E20059;" d="M250.788,78.307V301.69c61.594-0.109,111.492-50.072,111.492-111.692
			C362.281,128.379,312.383,78.416,250.788,78.307L250.788,78.307z"/>
		<path style="fill:#FFFFFF;" d="M311.648,161.815h-30.812c-1.071,0-1.939-0.868-1.939-1.939v-30.811
			c0-3.455-2.801-6.256-6.256-6.256h-43.706c-3.455,0-6.256,2.801-6.256,6.256v30.811c0,1.071-0.868,1.939-1.939,1.939h-30.811
			c-3.455,0-6.256,2.801-6.256,6.256v43.706c0,3.455,2.801,6.256,6.256,6.256h30.811c1.071,0,1.939,0.868,1.939,1.939v30.811
			c0,3.455,2.801,6.256,6.256,6.256h43.706c3.455,0,6.256-2.801,6.256-6.256v-30.811c0-1.071,0.868-1.939,1.939-1.939h30.812
			c3.455,0,6.256-2.801,6.256-6.256v-43.705C317.904,164.616,315.103,161.815,311.648,161.815L311.648,161.815z"/>
		<path style="fill:#F4F1F1;" d="M311.648,161.815h-30.812c-1.071,0-1.939-0.868-1.939-1.939v-30.811
			c0-3.455-2.801-6.256-6.256-6.256h-21.853v134.23h21.853c3.455,0,6.256-2.801,6.256-6.256v-30.811
			c0-1.071,0.868-1.939,1.939-1.939h30.812c3.455,0,6.256-2.801,6.256-6.256v-43.706
			C317.904,164.616,315.103,161.815,311.648,161.815L311.648,161.815z"/>
	</g>
	<text transform="matrix(1 0 0 1 100.1333 409.0508)" style="font-family:'IstokWeb-Regular'; font-size:24.0574px;">The healthcare for your family</text>
	<text transform="matrix(1 0 0 1 107.6831 377.5488)" style="font-family:'IstokWeb-Bold'; font-size:70.281px;">VITAPLUS</text>
</g>
</svg>
