<?xml version="1.0" encoding="utf-8"?>
<!-- Generator: Adobe Illustrator 27.5.0, SVG Export Plug-In . SVG Version: 6.00 Build 0)  -->
<svg version="1.1" id="PRINT" xmlns="http://www.w3.org/2000/svg" xmlns:xlink="http://www.w3.org/1999/xlink" x="0px" y="0px"
	 viewBox="0 0 500 500" style="enable-background:new 0 0 500 500;" xml:space="preserve">
<g>
	
		<rect id="CUSTOM-Background_00000156555726418167172540000006260500256228360331_" style="fill:#FFFFFF;" width="500" height="500"/>
	
		<text transform="matrix(0.933 0 0 1 164.5718 319.42)" style="fill:#57C9B3; font-family:'Varela'; font-size:26.2643px; letter-spacing:2.144;">Medical Clinic</text>
	<g>
		<text transform="matrix(1 0 0 1 84.1218 278.8581)" style="fill:#242626; font-family:'Quicksand-Medium'; font-size:52.8619px;">Medical Center</text>
	</g>
	<path id="CUSTOM-group_00000022529826134751853860000008708534538949946010_" style="fill:#57C9B3;" d="M251.744,224.231
		c-27.759,0-50.342-22.583-50.342-50.342c0-27.759,22.583-50.342,50.342-50.342c27.758,0,50.341,22.583,50.341,50.342
		C302.086,201.648,279.503,224.231,251.744,224.231z M251.744,126.547c-26.105,0-47.342,21.237-47.342,47.342
		s21.237,47.342,47.342,47.342c26.104,0,47.341-21.237,47.341-47.342S277.848,126.547,251.744,126.547z"/>
	<g id="CUSTOM-group_00000130616545986490467530000009687452627395484317_">
		<path id="CUSTOM" style="fill:#FFFFFF;" d="M251.271,194.796l-10.843,11.595c0,0-3.391,2.863-7.442,0.999
			c-4.052-1.864-14.503-15.348-14.503-15.348s-0.953-4.233,3.435-6.943c4.387-2.709,9.923-9.477,9.923-9.477l-13.445-14.222v-5.534
			l16.438-14.121l5.404,1.381l11.034,11.405l13.201-11.41l7.633,0.005l12.594,14.344l-1.326,6.029l-12.414,12.123l13.739,11.731
			v6.679l-14.121,13.988l-6.882-0.058L251.271,194.796z"/>
		<path style="fill:#57C9B3;" d="M260.273,158.645c-0.757-0.757-1.767-1.174-2.843-1.174c-1.076,0-2.086,0.417-2.843,1.174
			l-18.954,18.954c-0.757,0.757-1.174,1.767-1.174,2.843c0,1.076,0.417,2.086,1.174,2.843l7.582,7.582
			c0.784,0.784,1.813,1.176,2.843,1.176c1.03,0,2.059-0.392,2.843-1.176l18.954-18.954c1.568-1.568,1.568-4.118,0-5.686
			L260.273,158.645z M265.96,170.017l-18.954,18.954c-0.523,0.523-1.373,0.523-1.895,0l-7.582-7.582
			c-0.523-0.522-0.523-1.373,0-1.895l18.954-18.954c0.261-0.261,0.604-0.392,0.948-0.392c0.343,0,0.686,0.131,0.948,0.392
			l7.582,7.581C266.482,168.644,266.482,169.495,265.96,170.017L265.96,170.017z"/>
		<path style="fill:#57C9B3;" d="M247.479,182.811c-0.523-0.523-1.372-0.523-1.895,0c-0.523,0.523-0.523,1.372,0,1.896
			c0.262,0.262,0.605,0.393,0.948,0.393c0.343,0,0.686-0.131,0.948-0.393C248.003,184.184,248.003,183.335,247.479,182.811
			L247.479,182.811z"/>
		<path style="fill:#57C9B3;" d="M243.689,179.02c-0.523-0.523-1.372-0.523-1.895,0c-0.523,0.523-0.523,1.372,0,1.896
			c0.262,0.262,0.605,0.393,0.948,0.393c0.343,0,0.686-0.131,0.948-0.393C244.212,180.393,244.212,179.544,243.689,179.02
			L243.689,179.02z"/>
		<path style="fill:#57C9B3;" d="M252.262,178.118c-0.498-0.548-1.345-0.588-1.893-0.09c-0.548,0.498-0.588,1.346-0.09,1.894
			c0.264,0.291,0.628,0.439,0.992,0.439c0.322,0,0.644-0.115,0.901-0.349C252.72,179.514,252.76,178.667,252.262,178.118
			L252.262,178.118z"/>
		<path style="fill:#57C9B3;" d="M248.427,174.281c-0.523-0.523-1.372-0.523-1.895,0c-0.523,0.523-0.523,1.372,0,1.896
			c0.262,0.262,0.605,0.393,0.948,0.393c0.343,0,0.686-0.131,0.948-0.393C248.951,175.654,248.951,174.806,248.427,174.281
			L248.427,174.281z"/>
		<path style="fill:#57C9B3;" d="M256.956,173.334c-0.523-0.523-1.372-0.523-1.895,0c-0.523,0.523-0.523,1.372,0,1.896
			c0.262,0.262,0.605,0.393,0.948,0.393c0.343,0,0.686-0.131,0.948-0.393C257.48,174.707,257.48,173.858,256.956,173.334
			L256.956,173.334z"/>
		<path style="fill:#57C9B3;" d="M261.695,168.595c-0.523-0.523-1.372-0.523-1.895,0c-0.523,0.523-0.523,1.372,0,1.896
			c0.262,0.262,0.605,0.393,0.948,0.393c0.343,0,0.686-0.131,0.948-0.393C262.219,169.968,262.219,169.12,261.695,168.595
			L261.695,168.595z"/>
		<path style="fill:#57C9B3;" d="M253.12,169.5L253.12,169.5c-0.548-0.499-1.396-0.458-1.894,0.09
			c-0.498,0.548-0.457,1.396,0.091,1.894c0.257,0.234,0.579,0.349,0.901,0.349c0.364,0,0.728-0.148,0.992-0.439
			C253.708,170.845,253.668,169.998,253.12,169.5z"/>
		<path style="fill:#57C9B3;" d="M257.948,164.851c-0.498-0.548-1.345-0.588-1.893-0.09c-0.548,0.498-0.588,1.346-0.09,1.894
			c0.265,0.291,0.628,0.439,0.992,0.439c0.322,0,0.644-0.115,0.901-0.349C258.406,166.247,258.447,165.399,257.948,164.851
			L257.948,164.851z"/>
		<path style="fill:#57C9B3;" d="M273.34,174.756l10.409-10.409c3.078-3.078,3.078-8.088,0-11.166l-10.43-10.43
			c-3.079-3.078-8.088-3.078-11.166,0l-10.409,10.409l-10.409-10.409c-3.079-3.078-8.088-3.078-11.166,0l-10.43,10.43
			c-3.079,3.079-3.079,8.088,0,11.166l10.409,10.409l-10.409,10.409c-3.079,3.079-3.079,8.088,0,11.166l10.43,10.43
			c1.539,1.539,3.561,2.309,5.583,2.309s4.044-0.77,5.583-2.309l10.409-10.409l10.409,10.409c1.539,1.539,3.561,2.309,5.583,2.309
			s4.044-0.77,5.583-2.309l10.43-10.43c3.079-3.079,3.079-8.088,0-11.166L273.34,174.756z M221.634,162.451
			c-0.98-0.98-1.52-2.29-1.52-3.688s0.54-2.708,1.52-3.688l10.43-10.43c0.98-0.98,2.29-1.52,3.688-1.52
			c1.398,0,2.708,0.54,3.688,1.52l10.409,10.409l-17.805,17.805L221.634,162.451z M239.44,204.866c-2.033,2.034-5.342,2.034-7.375,0
			l-10.43-10.43c-2.033-2.033-2.033-5.342,0-7.375l42.414-42.415c1.017-1.017,2.352-1.525,3.688-1.525
			c1.335,0,2.671,0.508,3.688,1.525l10.43,10.43c0.98,0.98,1.52,2.29,1.52,3.688c0,1.398-0.54,2.708-1.52,3.688L239.44,204.866z
			 M281.854,194.436l-10.43,10.43c-2.033,2.033-5.342,2.034-7.376,0l-10.409-10.409l17.805-17.805l10.409,10.409
			C283.888,189.094,283.888,192.402,281.854,194.436L281.854,194.436z"/>
	</g>
	<g id="CUSTOM-group">
		<g>
			<path style="fill:#57C9B3;" d="M371.578,311.475c0,0.944-0.765,1.709-1.709,1.709c-0.944,0-1.709-0.765-1.709-1.709
				c0-0.944,0.765-1.709,1.709-1.709C370.813,309.766,371.578,310.531,371.578,311.475z"/>
			<g>
				<path style="fill:#57C9B3;" d="M386.052,311.475c0,0.944-0.765,1.709-1.709,1.709s-1.709-0.765-1.709-1.709
					c0-0.944,0.765-1.709,1.709-1.709S386.052,310.531,386.052,311.475z"/>
				<path style="fill:#57C9B3;" d="M400.525,311.475c0,0.944-0.765,1.709-1.709,1.709c-0.944,0-1.709-0.765-1.709-1.709
					c0-0.944,0.765-1.709,1.709-1.709C399.76,309.766,400.525,310.531,400.525,311.475z"/>
			</g>
		</g>
		<g>
			<path style="fill:#57C9B3;" d="M106.381,311.475c0,0.944-0.765,1.709-1.709,1.709c-0.944,0-1.709-0.765-1.709-1.709
				c0-0.944,0.765-1.709,1.709-1.709C105.616,309.766,106.381,310.531,106.381,311.475z"/>
			<g>
				<path style="fill:#57C9B3;" d="M120.854,311.475c0,0.944-0.765,1.709-1.709,1.709c-0.944,0-1.709-0.765-1.709-1.709
					c0-0.944,0.765-1.709,1.709-1.709C120.089,309.766,120.854,310.531,120.854,311.475z"/>
				<path style="fill:#57C9B3;" d="M135.327,311.475c0,0.944-0.765,1.709-1.709,1.709c-0.944,0-1.709-0.765-1.709-1.709
					c0-0.944,0.765-1.709,1.709-1.709C134.563,309.766,135.327,310.531,135.327,311.475z"/>
			</g>
		</g>
	</g>
</g>
</svg>
