<svg xmlns="http://www.w3.org/2000/svg" xmlns:xlink="http://www.w3.org/1999/xlink" width="500" zoomAndPan="magnify" viewBox="0 0 375 374.999991" height="500" preserveAspectRatio="xMidYMid meet" version="1.0"><defs><g/></defs><g fill="#ffffff" fill-opacity="1"><g transform="translate(110.188049, 163.596757)"><g><path d="M 25.0625 -32.609375 L 32.09375 -32.609375 L 32.09375 -0.046875 L 27.78125 -0.046875 L 27.78125 -28.625 L 24.359375 -19.5 L 20.140625 -19.5 Z M 2.3125 -32.609375 L 9.359375 -32.609375 L 14.265625 -19.5 L 10 -19.5 L 6.578125 -28.625 L 6.578125 -0.046875 L 2.3125 -0.046875 Z M 11.671875 -15.046875 L 15.9375 -15.046875 L 17.1875 -12.09375 L 18.484375 -15.046875 L 22.6875 -15.046875 L 19.40625 -7.3125 L 14.953125 -7.3125 Z M 11.671875 -15.046875 "/></g></g></g><g fill="#ffffff" fill-opacity="1"><g transform="translate(141.394426, 163.596757)"><g><path d="M 20.46875 -32.375 C 24.414062 -32 27.644531 -30.546875 30.15625 -28.015625 C 33.082031 -25.117188 34.546875 -21.179688 34.546875 -16.203125 C 34.546875 -11.265625 33.082031 -7.332031 30.15625 -4.40625 C 27.644531 -1.894531 24.414062 -0.457031 20.46875 -0.09375 L 20.46875 -4.078125 C 23.4375 -4.535156 25.660156 -5.628906 27.140625 -7.359375 C 29.148438 -9.648438 30.15625 -12.597656 30.15625 -16.203125 C 30.15625 -19.972656 29.148438 -22.96875 27.140625 -25.1875 C 25.597656 -26.976562 23.375 -28.078125 20.46875 -28.484375 Z M 16.03125 -32.328125 L 16.03125 -28.4375 C 13.40625 -27.96875 11.332031 -26.882812 9.8125 -25.1875 C 7.8125 -22.90625 6.8125 -19.910156 6.8125 -16.203125 C 6.8125 -12.660156 7.8125 -9.710938 9.8125 -7.359375 C 11.269531 -5.722656 13.34375 -4.644531 16.03125 -4.125 L 16.03125 -0.140625 C 12.289062 -0.535156 9.1875 -1.957031 6.71875 -4.40625 C 3.78125 -7.394531 2.3125 -11.328125 2.3125 -16.203125 C 2.3125 -21.148438 3.78125 -25.085938 6.71875 -28.015625 C 9.1875 -30.484375 12.289062 -31.921875 16.03125 -32.328125 Z M 16.03125 -32.328125 "/></g></g></g><g fill="#ffffff" fill-opacity="1"><g transform="translate(175.10105, 163.596757)"><g><path d="M 2.3125 -32.609375 L 6.90625 -32.609375 L 19.21875 -0.046875 L 14.734375 -0.046875 Z M 27.5625 -32.609375 L 32.140625 -32.609375 L 21.859375 -5.609375 L 19.59375 -11.53125 Z M 27.5625 -32.609375 "/></g></g></g><g fill="#ffffff" fill-opacity="1"><g transform="translate(206.35373, 163.596757)"><g><path d="M 2.3125 -14.953125 L 6.765625 -14.953125 L 6.765625 0 L 2.3125 0 Z M 2.3125 -32.46875 L 6.765625 -32.46875 L 6.765625 -19.359375 L 2.3125 -19.359375 Z M 2.3125 -32.46875 "/></g></g></g><g fill="#ffffff" fill-opacity="1"><g transform="translate(212.233555, 163.596757)"><g><path d="M 12.78125 -32.46875 C 17.65625 -32.46875 21.53125 -30.984375 24.40625 -28.015625 C 27.25 -25.179688 28.671875 -21.226562 28.671875 -16.15625 C 28.671875 -11.125 27.25 -7.175781 24.40625 -4.3125 C 21.5625 -1.40625 17.6875 0.046875 12.78125 0.046875 L 2.3125 0 L 2.3125 -23.625 L 6.8125 -23.625 L 6.8125 -4.265625 L 12.453125 -4.21875 C 13.410156 -4.21875 14.28125 -4.285156 15.0625 -4.421875 C 15.851562 -4.554688 16.578125 -4.734375 17.234375 -4.953125 C 18.492188 -5.453125 19.617188 -6.238281 20.609375 -7.3125 C 21.160156 -7.9375 21.648438 -8.570312 22.078125 -9.21875 C 22.515625 -9.863281 22.875 -10.523438 23.15625 -11.203125 C 23.738281 -12.566406 24.03125 -14.21875 24.03125 -16.15625 C 24.03125 -19.5 22.765625 -22.523438 20.234375 -25.234375 C 19.160156 -26.222656 18.003906 -26.984375 16.765625 -27.515625 C 16.179688 -27.785156 15.523438 -27.972656 14.796875 -28.078125 C 14.066406 -28.191406 13.253906 -28.25 12.359375 -28.25 L 2.359375 -28.15625 L 2.3125 -32.46875 Z M 12.78125 -32.46875 "/></g></g></g><g fill="#ffffff" fill-opacity="1"><g transform="translate(240.013674, 163.596757)"><g><path d="M 6.90625 -12 L 27.5625 -12 L 32.140625 0 L 27.5625 0 L 24.59375 -8.34375 L 9.90625 -8.34375 L 6.953125 0 L 2.3125 0 Z M 14.734375 -32.515625 L 19.734375 -32.515625 L 26.125 -15.75 L 21.8125 -15.75 L 17.234375 -28.203125 L 12.640625 -15.75 L 8.34375 -15.75 Z M 14.734375 -32.515625 "/></g></g></g></svg>