<?xml version="1.0" encoding="utf-8"?>
<!-- Generator: Adobe Illustrator 27.5.0, SVG Export Plug-In . SVG Version: 6.00 Build 0)  -->
<svg version="1.1" id="Layer_1" xmlns="http://www.w3.org/2000/svg" xmlns:xlink="http://www.w3.org/1999/xlink" x="0px" y="0px"
	 viewBox="0 0 2000 2000" style="enable-background:new 0 0 2000 2000;" xml:space="preserve">
<rect style="fill-rule:evenodd;clip-rule:evenodd;fill:#FFFFFF;" width="2000" height="2000"/>
<g>
	<defs>
		<path id="SVGID_1_" d="M878.988,520.283h121.011c66.557,0,121.012,54.455,121.012,121.011v76.291
			c-7.494,131.27,40.105,211.944,142.794,242.023c-99.273-6.559-193.554-48.837-264.767-120.051
			c-71.213-71.212-113.492-165.494-120.05-264.768V520.283z"/>
	</defs>
	<clipPath id="SVGID_00000115503863575539182190000002673975696811513274_">
		<use xlink:href="#SVGID_1_"  style="overflow:visible;"/>
	</clipPath>
	
		<linearGradient id="SVGID_00000120532212367210166120000010045791263577825188_" gradientUnits="userSpaceOnUse" x1="1268.9097" y1="1017.5954" x2="765.9095" y2="310.5114">
		<stop  offset="0" style="stop-color:#045304"/>
		<stop  offset="0.2428" style="stop-color:#1B6B06"/>
		<stop  offset="0.7517" style="stop-color:#55A70D"/>
		<stop  offset="1" style="stop-color:#73C710"/>
	</linearGradient>
	
		<rect x="878.988" y="520.283" style="clip-path:url(#SVGID_00000115503863575539182190000002673975696811513274_);fill:url(#SVGID_00000120532212367210166120000010045791263577825188_);" width="384.817" height="439.326"/>
</g>
<g>
	<defs>
		<path id="SVGID_00000119835692882850036360000000058306664557261453_" d="M890.062,531.357v43.065
			c6.499,97.035,47.992,188.49,116.806,257.304c51.18,51.178,114.88,87.246,184.085,105.044
			c-141.115-82.874-216.929-243.838-190.954-405.413H890.062z"/>
	</defs>
	<clipPath id="SVGID_00000098211802991119469360000005478571823920194208_">
		<use xlink:href="#SVGID_00000119835692882850036360000000058306664557261453_"  style="overflow:visible;"/>
	</clipPath>
	
		<linearGradient id="SVGID_00000005983085461276891910000003541893363989647789_" gradientUnits="userSpaceOnUse" x1="1251.1779" y1="1030.209" x2="748.1767" y2="323.1236">
		<stop  offset="0" style="stop-color:#045304"/>
		<stop  offset="0.2483" style="stop-color:#227307"/>
		<stop  offset="0.7572" style="stop-color:#5CAF0E"/>
		<stop  offset="1" style="stop-color:#73C710"/>
	</linearGradient>
	
		<rect x="890.062" y="531.357" style="clip-path:url(#SVGID_00000098211802991119469360000005478571823920194208_);fill:url(#SVGID_00000005983085461276891910000003541893363989647789_);" width="300.892" height="405.413"/>
</g>
<g>
	<defs>
		<path id="SVGID_00000034091262321533258650000003284241871553961088_" d="M1121.011,717.585
			c-7.494,131.27,40.105,211.944,142.794,242.023h54.508V838.596c0-66.557-54.455-121.011-121.012-121.011H1121.011z"/>
	</defs>
	<clipPath id="SVGID_00000140012850829752851200000011224620284365443488_">
		<use xlink:href="#SVGID_00000034091262321533258650000003284241871553961088_"  style="overflow:visible;"/>
	</clipPath>
	
		<linearGradient id="SVGID_00000098189706096475788290000017008075357219096711_" gradientUnits="userSpaceOnUse" x1="938.393" y1="763.5617" x2="1579.0176" y2="936.7694">
		<stop  offset="0" style="stop-color:#0131B8"/>
		<stop  offset="0.2837" style="stop-color:#0651C8"/>
		<stop  offset="0.9035" style="stop-color:#13A2F0"/>
		<stop  offset="1" style="stop-color:#15AFF7"/>
	</linearGradient>
	
		<rect x="1113.518" y="717.585" style="clip-path:url(#SVGID_00000140012850829752851200000011224620284365443488_);fill:url(#SVGID_00000098189706096475788290000017008075357219096711_);" width="204.796" height="242.023"/>
</g>
<g>
	<defs>
		<path id="SVGID_00000149358633999441224620000002088190632221362098_" d="M1121.011,717.585
			c-7.494,131.27,40.105,211.944,142.794,242.023c-87.337-46.139-130.857-146.789-104.649-242.023H1121.011z"/>
	</defs>
	<clipPath id="SVGID_00000113334487430522737840000012544839729467384249_">
		<use xlink:href="#SVGID_00000149358633999441224620000002088190632221362098_"  style="overflow:visible;"/>
	</clipPath>
	
		<linearGradient id="SVGID_00000109716670479927056690000016438255213191632274_" gradientUnits="userSpaceOnUse" x1="936.5366" y1="770.4285" x2="1577.1616" y2="943.6364">
		<stop  offset="0" style="stop-color:#0131B8"/>
		<stop  offset="0.1738" style="stop-color:#0235BA"/>
		<stop  offset="0.3531" style="stop-color:#0442C0"/>
		<stop  offset="0.5349" style="stop-color:#0756CB"/>
		<stop  offset="0.7184" style="stop-color:#0B73D9"/>
		<stop  offset="0.9015" style="stop-color:#1198EB"/>
		<stop  offset="1" style="stop-color:#15AFF7"/>
	</linearGradient>
	
		<rect x="1113.518" y="717.585" style="clip-path:url(#SVGID_00000113334487430522737840000012544839729467384249_);fill:url(#SVGID_00000109716670479927056690000016438255213191632274_);" width="150.288" height="242.023"/>
</g>
<g>
	<defs>
		<path id="SVGID_00000136399467255583213160000017006807271767752344_" d="M1121.011,1207.06H999.999
			c-66.556,0-121.011-54.455-121.011-121.011v-76.291c7.493-131.27-40.106-211.944-142.795-242.023
			c99.273,6.559,193.554,48.837,264.768,120.051c71.213,71.212,113.492,165.494,120.05,264.768V1207.06z"/>
	</defs>
	<clipPath id="SVGID_00000126298899630620554350000016993143340003468174_">
		<use xlink:href="#SVGID_00000136399467255583213160000017006807271767752344_"  style="overflow:visible;"/>
	</clipPath>
	
		<linearGradient id="SVGID_00000095307942875650370100000017427530655000719508_" gradientUnits="userSpaceOnUse" x1="731.1052" y1="709.7689" x2="1234.106" y2="1416.8539">
		<stop  offset="0" style="stop-color:#0131B8"/>
		<stop  offset="0.2262" style="stop-color:#0549C4"/>
		<stop  offset="0.7006" style="stop-color:#0E86E2"/>
		<stop  offset="1" style="stop-color:#15AFF7"/>
	</linearGradient>
	
		<rect x="736.193" y="767.734" style="clip-path:url(#SVGID_00000126298899630620554350000016993143340003468174_);fill:url(#SVGID_00000095307942875650370100000017427530655000719508_);" width="384.818" height="439.326"/>
</g>
<g>
	<defs>
		<path id="SVGID_00000101105250912325908130000016023359590353863336_" d="M1109.937,1195.986v-43.066
			c-6.497-97.035-47.992-188.49-116.806-257.304c-51.178-51.178-114.879-87.246-184.086-105.044
			c141.115,82.874,216.931,243.837,190.955,405.413H1109.937z"/>
	</defs>
	<clipPath id="SVGID_00000152959919324697761750000016370778818021551018_">
		<use xlink:href="#SVGID_00000101105250912325908130000016023359590353863336_"  style="overflow:visible;"/>
	</clipPath>
	
		<linearGradient id="SVGID_00000020388914463445947380000008803157303128954783_" gradientUnits="userSpaceOnUse" x1="748.8366" y1="697.1556" x2="1251.8378" y2="1404.2412">
		<stop  offset="0" style="stop-color:#0131B8"/>
		<stop  offset="0.2685" style="stop-color:#0756CB"/>
		<stop  offset="0.7651" style="stop-color:#1196EA"/>
		<stop  offset="1" style="stop-color:#15AFF7"/>
	</linearGradient>
	
		<rect x="809.045" y="790.572" style="clip-path:url(#SVGID_00000152959919324697761750000016370778818021551018_);fill:url(#SVGID_00000020388914463445947380000008803157303128954783_);" width="300.892" height="405.413"/>
</g>
<g>
	<defs>
		<path id="SVGID_00000147934776475836973000000000758316690120789927_" d="M878.988,1009.758
			c7.493-131.27-40.106-211.944-142.795-242.023h-54.508v121.012c0,66.557,54.455,121.011,121.012,121.011H878.988z"/>
	</defs>
	<clipPath id="SVGID_00000107554784899843808740000004824865499851351467_">
		<use xlink:href="#SVGID_00000147934776475836973000000000758316690120789927_"  style="overflow:visible;"/>
	</clipPath>
	
		<linearGradient id="SVGID_00000144313444966542798760000005932973085202649760_" gradientUnits="userSpaceOnUse" x1="1061.6156" y1="963.7786" x2="420.9489" y2="790.5703">
		<stop  offset="0" style="stop-color:#045304"/>
		<stop  offset="0.3079" style="stop-color:#237307"/>
		<stop  offset="0.9813" style="stop-color:#71C510"/>
		<stop  offset="1" style="stop-color:#73C710"/>
	</linearGradient>
	
		<rect x="681.685" y="767.734" style="clip-path:url(#SVGID_00000107554784899843808740000004824865499851351467_);fill:url(#SVGID_00000144313444966542798760000005932973085202649760_);" width="204.796" height="242.023"/>
</g>
<g>
	<defs>
		<path id="SVGID_00000014604186156361402470000009630323287143184297_" d="M878.988,1009.758
			c7.493-131.27-40.106-211.944-142.795-242.023c87.337,46.139,130.857,146.789,104.651,242.023H878.988z"/>
	</defs>
	<clipPath id="SVGID_00000079453835153087442060000016817334018073941381_">
		<use xlink:href="#SVGID_00000014604186156361402470000009630323287143184297_"  style="overflow:visible;"/>
	</clipPath>
	
		<linearGradient id="SVGID_00000056389964056383792090000013115574886120522666_" gradientUnits="userSpaceOnUse" x1="1063.4719" y1="956.9122" x2="422.8058" y2="783.7041">
		<stop  offset="0" style="stop-color:#045304"/>
		<stop  offset="0.1804" style="stop-color:#085704"/>
		<stop  offset="0.3677" style="stop-color:#146406"/>
		<stop  offset="0.5581" style="stop-color:#287808"/>
		<stop  offset="0.7506" style="stop-color:#44950B"/>
		<stop  offset="0.9431" style="stop-color:#67BB0F"/>
		<stop  offset="1" style="stop-color:#73C710"/>
	</linearGradient>
	
		<rect x="736.193" y="767.734" style="clip-path:url(#SVGID_00000079453835153087442060000016817334018073941381_);fill:url(#SVGID_00000056389964056383792090000013115574886120522666_);" width="150.288" height="242.023"/>
</g>
<g>
	<defs>
		<path id="SVGID_00000037684062941883481590000012751606046796006051_" d="M779.674,602.575c34.518,0,62.499,27.982,62.499,62.499
			c0,34.518-27.982,62.499-62.499,62.499c-34.518,0-62.499-27.982-62.499-62.499C717.175,630.556,745.156,602.575,779.674,602.575"
			/>
	</defs>
	<clipPath id="SVGID_00000051352530478827024440000002015630387147286181_">
		<use xlink:href="#SVGID_00000037684062941883481590000012751606046796006051_"  style="overflow:visible;"/>
	</clipPath>
	
		<linearGradient id="SVGID_00000098186454085821214050000006208526301589425570_" gradientUnits="userSpaceOnUse" x1="921.6719" y1="788.2465" x2="646.6725" y2="549.7051">
		<stop  offset="0" style="stop-color:#045304"/>
		<stop  offset="0.413" style="stop-color:#2F8009"/>
		<stop  offset="1" style="stop-color:#73C710"/>
	</linearGradient>
	
		<rect x="717.175" y="602.575" style="clip-path:url(#SVGID_00000051352530478827024440000002015630387147286181_);fill:url(#SVGID_00000098186454085821214050000006208526301589425570_);" width="124.998" height="124.999"/>
</g>
<g>
	<defs>
		<path id="SVGID_00000088853521222108839590000013428709442902791065_" d="M779.674,608.824c31.066,0,56.25,25.183,56.25,56.25
			c0,31.066-25.184,56.25-56.25,56.25c-31.067,0-56.25-25.184-56.25-56.25C723.424,634.008,748.608,608.824,779.674,608.824"/>
	</defs>
	<clipPath id="SVGID_00000065762265081944018660000012980939749830754210_">
		<use xlink:href="#SVGID_00000088853521222108839590000013428709442902791065_"  style="overflow:visible;"/>
	</clipPath>
	
		<linearGradient id="SVGID_00000006687460675051004420000013822273005339334579_" gradientUnits="userSpaceOnUse" x1="922.6723" y1="787.1457" x2="666.4221" y2="568.3957">
		<stop  offset="0" style="stop-color:#045304"/>
		<stop  offset="0.5871" style="stop-color:#489A0B"/>
		<stop  offset="1" style="stop-color:#73C710"/>
	</linearGradient>
	
		<rect x="723.424" y="608.824" style="clip-path:url(#SVGID_00000065762265081944018660000012980939749830754210_);fill:url(#SVGID_00000006687460675051004420000013822273005339334579_);" width="112.5" height="112.5"/>
</g>
<path style="fill:#191A1C;" d="M1482.024,1365.423h-52.81v-21.232h50.929v-16.527h-50.929v-21.769h52.81v-17.202h-70.414
	c0,31.4,0,62.889,0,94.199h70.414V1365.423z M1357.019,1305.222c11.155,0,16.127,7.548,16.127,15.119
	c0,7.569-4.839,15.117-16.127,15.117h-27.009v-30.236H1357.019z M1395.587,1381.683l-28.49-32.115
	c17.873-3.628,23.786-16.663,23.786-29.63c0-16.327-11.69-31.109-33.865-31.244c-14.915,0.135-29.831,0-44.746,0v94.199h17.737
	v-31.445h17.067l27.413,31.445h21.098V1381.683z M1260.773,1348.626h-34.938l17.469-40.134L1260.773,1348.626z M1275.824,1382.893
	h19.35l-42.195-94.199h-19.35l-42.194,94.199h19.215l8.062-17.738h49.183L1275.824,1382.893z M1174.2,1358.839
	c-6.18,6.181-15.454,9.54-23.649,9.54c-23.248,0-32.25-16.259-32.385-31.846c-0.135-15.723,9.674-32.654,32.385-32.654
	c8.195,0,16.528,2.822,22.71,8.869l11.824-11.422c-9.676-9.54-21.769-14.377-34.534-14.377c-33.997,0-49.988,24.993-49.855,49.585
	c0.135,24.455,14.916,48.509,49.855,48.509c13.572,0,26.068-4.434,35.744-13.976L1174.2,1358.839z M1077.685,1382.893v-93.928
	h-17.603v39.64h-46.226v-39.64h-17.738v93.928h17.738v-37.895h46.226v37.895H1077.685z M928.629,1382.893h17.737v-78.073h29.833
	v-16.125c-27.279,0-50.257,0-77.403,0v16.125h29.833V1382.893z M830.635,1288.694v94.199h66.113v-16.394h-48.375v-77.805H830.635z
	 M777.791,1348.626h-34.939l17.47-40.134L777.791,1348.626z M792.841,1382.893h19.35l-42.195-94.199h-19.35l-42.193,94.199h19.214
	l8.063-17.738h49.181L792.841,1382.893z M695.385,1365.423h-52.81v-21.232h50.929v-16.527h-50.929v-21.769h52.81v-17.202h-70.414
	c0,31.4,0,62.889,0,94.199h70.414V1365.423z M599.54,1382.893v-93.928h-17.602v39.64h-46.228v-39.64h-17.736v93.928h17.736v-37.895
	h46.228v37.895H599.54z"/>
<path style="fill:#191A1C;" d="M1224.404,1457.072l-27.511-34.864h-8.581v56.225h10.586v-37.911l29.517,37.911h6.576v-56.225
	h-10.587V1457.072z M1145.542,1430.791c13.233,0,18.527,10.586,18.366,20.052c-0.161,9.223-5.133,19.169-18.366,19.169
	c-13.234,0-18.207-9.866-18.449-19.09C1126.854,1441.458,1132.308,1430.791,1145.542,1430.791z M1145.542,1421.165
	c-19.41,0-28.874,14.838-28.874,29.597c0,14.758,9.144,28.955,28.874,28.955c19.729,0,28.633-14.517,28.794-29.035
	C1174.496,1436.004,1164.872,1421.165,1145.542,1421.165z M1100.606,1464.076c-3.69,3.691-9.223,5.696-14.116,5.696
	c-13.875,0-19.249-9.705-19.33-19.009c-0.079-9.385,5.776-19.49,19.33-19.49c4.893,0,9.866,1.684,13.556,5.294l7.057-6.818
	c-5.773-5.694-12.993-8.583-20.613-8.583c-20.292,0-29.836,14.92-29.756,29.597c0.079,14.597,8.902,28.955,29.756,28.955
	c8.102,0,15.56-2.647,21.336-8.343L1100.606,1464.076z M1042.999,1478.433v-56.225h-10.506v56.225H1042.999z M974.243,1430.791
	c13.234,0,18.527,10.586,18.366,20.052c-0.159,9.223-5.132,19.169-18.366,19.169c-13.234,0-18.207-9.866-18.448-19.09
	C955.556,1441.458,961.009,1430.791,974.243,1430.791z M974.243,1421.165c-19.41,0-28.873,14.838-28.873,29.597
	c0,14.758,9.143,28.955,28.873,28.955c19.73,0,28.633-14.517,28.794-29.035C1003.198,1436.004,993.573,1421.165,974.243,1421.165z
	 M932.276,1429.267c-5.775-5.695-13.315-8.582-20.853-8.582c-19.812,0-29.677,14.598-29.677,30.398
	c0,14.759,8.583,28.635,29.677,28.635c9.866,0,16.843-3.771,22.377-10.107v-23.661h-24.062v9.464h14.357v9.946
	c-4.412,3.529-8.262,4.492-12.672,4.492c-13.957,0-19.331-9.545-19.331-18.769c0-11.55,7.299-20.693,19.331-20.693
	c4.891,0,10.507,2.005,14.276,5.614L932.276,1429.267z M842.025,1430.791c13.233,0,18.527,10.586,18.366,20.052
	c-0.16,9.223-5.133,19.169-18.366,19.169c-13.235,0-18.208-9.866-18.449-19.09C823.336,1441.458,828.789,1430.791,842.025,1430.791z
	 M842.025,1421.165c-19.411,0-28.875,14.838-28.875,29.597c0,14.758,9.143,28.955,28.875,28.955
	c19.729,0,28.633-14.517,28.793-29.035C870.978,1436.004,861.354,1421.165,842.025,1421.165z M765.005,1422.208v56.225h39.462
	v-9.784h-28.875v-46.441H765.005z"/>
</svg>
