<svg xmlns="http://www.w3.org/2000/svg" xmlns:xlink="http://www.w3.org/1999/xlink" width="500" zoomAndPan="magnify" viewBox="0 0 375 374.999991" height="500" preserveAspectRatio="xMidYMid meet" version="1.0"><defs><clipPath id="82fd774690"><path d="M 117 158 L 226 158 L 226 262.285156 L 117 262.285156 Z M 117 158 " clip-rule="nonzero"/></clipPath><clipPath id="117baacacf"><path d="M 166 102.535156 L 276.648438 102.535156 L 276.648438 193 L 166 193 Z M 166 102.535156 " clip-rule="nonzero"/></clipPath></defs><g clip-path="url(#82fd774690)"><path fill="#1bbfaf" d="M 219.285156 225.164062 C 216.984375 222.867188 214.855469 220.398438 212.929688 217.796875 L 212.929688 233.007812 C 212.929688 233.546875 212.929688 234.089844 212.894531 234.597656 C 212.859375 235.101562 212.792969 235.644531 212.691406 236.183594 C 212.589844 236.726562 212.488281 237.234375 212.320312 237.738281 C 212.183594 238.246094 212.015625 238.753906 211.8125 239.261719 C 211.609375 239.769531 211.40625 240.242188 211.136719 240.714844 C 210.902344 241.1875 210.628906 241.660156 210.324219 242.101562 C 210.023438 242.539062 209.71875 242.980469 209.378906 243.382812 C 209.042969 243.789062 208.703125 244.195312 208.296875 244.566406 C 207.925781 244.9375 207.519531 245.3125 207.113281 245.648438 C 206.710938 245.988281 206.269531 246.324219 205.832031 246.628906 C 205.390625 246.933594 204.917969 247.203125 204.445312 247.472656 C 203.972656 247.746094 203.5 247.949219 202.992188 248.183594 C 202.484375 248.386719 202.011719 248.589844 201.46875 248.726562 C 200.964844 248.894531 200.457031 249.03125 199.914062 249.128906 C 199.375 249.230469 198.867188 249.300781 198.328125 249.367188 C 197.785156 249.433594 197.246094 249.433594 196.738281 249.433594 C 196.195312 249.433594 195.65625 249.402344 195.148438 249.367188 C 194.609375 249.300781 194.101562 249.230469 193.558594 249.128906 C 193.019531 249.03125 192.511719 248.894531 192.003906 248.726562 C 191.5 248.554688 190.992188 248.386719 190.484375 248.183594 C 189.976562 247.980469 189.503906 247.746094 189.03125 247.472656 C 188.558594 247.203125 188.117188 246.933594 187.644531 246.628906 C 187.207031 246.324219 186.765625 246.019531 186.359375 245.648438 C 185.957031 245.3125 185.550781 244.9375 185.175781 244.566406 C 184.804688 244.195312 184.433594 243.789062 184.097656 243.382812 C 183.757812 242.980469 183.453125 242.539062 183.148438 242.101562 C 182.84375 241.660156 182.574219 241.1875 182.339844 240.714844 C 182.101562 240.242188 181.863281 239.769531 181.664062 239.261719 C 181.460938 238.753906 181.289062 238.246094 181.15625 237.738281 C 181.019531 237.234375 180.886719 236.691406 180.785156 236.183594 C 180.683594 235.644531 180.613281 235.136719 180.582031 234.597656 C 180.546875 234.054688 180.511719 233.515625 180.546875 233.007812 L 180.546875 198.023438 L 145.664062 198.023438 C 144.820312 198.023438 143.972656 197.957031 143.128906 197.820312 C 142.285156 197.683594 141.472656 197.480469 140.660156 197.210938 C 139.851562 196.941406 139.074219 196.636719 138.328125 196.230469 C 137.585938 195.859375 136.839844 195.386719 136.164062 194.914062 C 135.488281 194.40625 134.847656 193.867188 134.238281 193.257812 C 133.628906 192.648438 133.089844 192.007812 132.582031 191.332031 C 132.074219 190.652344 131.636719 189.910156 131.265625 189.167969 C 130.890625 188.421875 130.554688 187.613281 130.285156 186.835938 C 130.011719 186.023438 129.84375 185.210938 129.710938 184.367188 C 129.574219 183.523438 129.507812 182.675781 129.507812 181.832031 C 129.507812 180.988281 129.574219 180.140625 129.710938 179.296875 C 129.84375 178.453125 130.046875 177.640625 130.316406 176.828125 C 130.589844 176.019531 130.925781 175.242188 131.296875 174.496094 C 131.667969 173.753906 132.144531 173.011719 132.617188 172.332031 C 133.125 171.65625 133.664062 171.015625 134.273438 170.40625 C 134.882812 169.796875 135.523438 169.257812 136.199219 168.785156 L 137.417969 167.90625 C 135.828125 166.585938 134.375 165.167969 133.023438 163.613281 C 131.570312 161.992188 130.25 160.265625 129 158.476562 L 128.390625 158.914062 C 127.78125 159.355469 127.207031 159.828125 126.667969 160.335938 C 126.09375 160.839844 125.550781 161.347656 125.042969 161.890625 C 124.539062 162.429688 124.03125 162.972656 123.558594 163.546875 C 123.085938 164.121094 122.609375 164.695312 122.207031 165.335938 C 121.765625 165.945312 121.359375 166.585938 120.988281 167.230469 C 120.617188 167.871094 120.246094 168.515625 119.90625 169.191406 C 119.570312 169.867188 119.265625 170.542969 118.996094 171.21875 C 118.722656 171.894531 118.453125 172.605469 118.25 173.3125 C 118.015625 174.023438 117.84375 174.734375 117.675781 175.476562 C 117.507812 176.222656 117.371094 176.929688 117.269531 177.675781 C 117.167969 178.417969 117.066406 179.160156 117.035156 179.90625 C 117 180.683594 117 181.425781 117 182.171875 C 117 182.914062 117.035156 183.65625 117.101562 184.402344 C 117.167969 185.144531 117.269531 185.886719 117.371094 186.632812 C 117.507812 187.375 117.640625 188.085938 117.8125 188.828125 C 117.980469 189.539062 118.21875 190.28125 118.417969 190.992188 C 118.65625 191.703125 118.925781 192.410156 119.195312 193.089844 C 119.5 193.765625 119.804688 194.441406 120.144531 195.117188 C 120.480469 195.792969 120.851562 196.433594 121.257812 197.078125 C 121.664062 197.71875 122.070312 198.328125 122.507812 198.9375 C 122.949219 199.542969 123.421875 200.117188 123.894531 200.691406 C 124.367188 201.269531 124.910156 201.808594 125.417969 202.316406 C 125.957031 202.855469 126.5 203.328125 127.074219 203.835938 C 127.648438 204.308594 128.222656 204.785156 128.832031 205.222656 C 129.4375 205.660156 130.046875 206.066406 130.691406 206.472656 C 131.332031 206.878906 131.972656 207.21875 132.648438 207.554688 C 133.324219 207.894531 134.003906 208.195312 134.679688 208.5 C 135.355469 208.773438 136.0625 209.042969 136.773438 209.277344 C 137.484375 209.515625 138.195312 209.71875 138.9375 209.886719 C 139.648438 210.054688 140.390625 210.191406 141.132812 210.328125 C 141.878906 210.429688 142.621094 210.53125 143.363281 210.597656 C 144.109375 210.664062 144.851562 210.699219 145.597656 210.699219 L 168.007812 210.699219 L 168.007812 233.074219 C 168.007812 233.546875 168.007812 234.023438 168.007812 234.496094 C 168.007812 234.96875 168.039062 235.441406 168.074219 235.914062 C 168.109375 236.386719 168.175781 236.859375 168.242188 237.335938 C 168.3125 237.808594 168.378906 238.28125 168.480469 238.753906 C 168.582031 239.226562 168.648438 239.699219 168.785156 240.140625 C 168.886719 240.613281 169.019531 241.050781 169.15625 241.527344 C 169.289062 241.964844 169.425781 242.4375 169.59375 242.878906 C 169.765625 243.316406 169.898438 243.757812 170.101562 244.195312 C 170.269531 244.636719 170.472656 245.074219 170.675781 245.515625 C 170.878906 245.953125 171.082031 246.359375 171.285156 246.796875 C 171.523438 247.203125 171.726562 247.644531 171.960938 248.050781 C 172.199219 248.453125 172.433594 248.859375 172.703125 249.265625 C 172.976562 249.671875 173.246094 250.042969 173.515625 250.449219 C 173.785156 250.820312 174.089844 251.191406 174.394531 251.566406 C 174.699219 251.9375 175.003906 252.308594 175.308594 252.644531 C 175.613281 252.984375 175.949219 253.355469 176.289062 253.695312 C 176.625 254.03125 176.964844 254.371094 177.300781 254.675781 C 177.640625 254.976562 178.011719 255.316406 178.382812 255.621094 C 178.753906 255.925781 179.128906 256.230469 179.5 256.5 C 179.871094 256.769531 180.277344 257.074219 180.648438 257.3125 C 181.054688 257.582031 181.425781 257.816406 181.832031 258.089844 C 182.238281 258.324219 182.640625 258.5625 183.082031 258.796875 C 183.488281 259.035156 183.925781 259.238281 184.367188 259.441406 C 184.804688 259.644531 185.210938 259.847656 185.652344 260.015625 C 186.089844 260.183594 186.53125 260.386719 186.96875 260.523438 C 187.410156 260.691406 187.882812 260.824219 188.320312 260.960938 C 188.761719 261.097656 189.234375 261.230469 189.707031 261.332031 C 190.179688 261.433594 190.621094 261.570312 191.09375 261.636719 C 191.566406 261.703125 192.039062 261.804688 192.480469 261.875 C 192.953125 261.941406 193.425781 262.007812 193.898438 262.042969 C 194.371094 262.078125 194.84375 262.109375 195.316406 262.144531 C 195.792969 262.179688 196.265625 262.179688 196.738281 262.179688 C 197.210938 262.179688 197.683594 262.179688 198.15625 262.144531 C 198.628906 262.109375 199.105469 262.078125 199.578125 262.042969 C 200.050781 262.007812 200.523438 261.941406 200.996094 261.875 C 201.46875 261.804688 201.941406 261.738281 202.382812 261.636719 C 202.820312 261.535156 203.296875 261.433594 203.769531 261.332031 C 204.242188 261.230469 204.679688 261.097656 205.15625 260.960938 C 205.59375 260.824219 206.066406 260.65625 206.507812 260.523438 C 206.945312 260.351562 207.386719 260.183594 207.824219 260.015625 C 208.265625 259.847656 208.703125 259.644531 209.109375 259.441406 C 209.546875 259.238281 209.953125 259.035156 210.394531 258.796875 C 210.800781 258.5625 211.238281 258.324219 211.644531 258.089844 C 212.050781 257.851562 212.457031 257.582031 212.828125 257.3125 C 213.234375 257.039062 213.605469 256.769531 213.976562 256.5 C 214.347656 256.230469 214.71875 255.925781 215.09375 255.621094 C 215.464844 255.316406 215.800781 255.011719 216.171875 254.675781 C 216.511719 254.371094 216.851562 254.03125 217.1875 253.695312 C 217.527344 253.355469 217.828125 253.019531 218.167969 252.644531 C 218.472656 252.308594 218.777344 251.9375 219.082031 251.566406 C 219.382812 251.191406 219.65625 250.820312 219.960938 250.449219 C 220.230469 250.078125 220.5 249.671875 220.769531 249.265625 C 221.042969 248.859375 221.277344 248.453125 221.515625 248.050781 C 221.75 247.644531 221.988281 247.238281 222.191406 246.796875 C 222.394531 246.394531 222.628906 245.953125 222.796875 245.515625 C 223 245.074219 223.171875 244.636719 223.375 244.195312 C 223.542969 243.757812 223.710938 243.316406 223.878906 242.878906 C 224.050781 242.4375 224.183594 241.964844 224.320312 241.527344 C 224.453125 241.085938 224.589844 240.613281 224.691406 240.140625 C 224.792969 239.667969 224.894531 239.226562 224.996094 238.753906 C 225.097656 238.28125 225.164062 237.808594 225.234375 237.335938 C 225.300781 236.859375 225.332031 236.386719 225.402344 235.914062 C 225.433594 235.441406 225.46875 234.96875 225.46875 234.496094 C 225.46875 234.023438 225.503906 233.546875 225.46875 233.074219 L 225.46875 230.507812 C 223.273438 228.816406 221.175781 227.09375 219.285156 225.164062 Z M 219.285156 225.164062 " fill-opacity="1" fill-rule="nonzero"/></g><g clip-path="url(#117baacacf)"><path fill="#fff4f0" d="M 170.777344 158.710938 C 169.832031 160.941406 168.511719 162.9375 166.824219 164.660156 L 167.230469 165.605469 L 167.230469 165.707031 L 180.613281 165.707031 L 180.613281 130.792969 C 180.613281 130.285156 180.648438 129.742188 180.714844 129.238281 C 180.785156 128.730469 180.851562 128.1875 180.984375 127.683594 C 181.085938 127.175781 181.222656 126.667969 181.390625 126.160156 C 181.5625 125.652344 181.730469 125.179688 181.933594 124.707031 C 182.136719 124.234375 182.371094 123.761719 182.609375 123.289062 C 182.84375 122.816406 183.148438 122.375 183.421875 121.96875 C 183.722656 121.53125 184.027344 121.125 184.367188 120.71875 C 184.703125 120.3125 185.042969 119.941406 185.414062 119.570312 C 185.785156 119.199219 186.191406 118.859375 186.597656 118.523438 C 187.003906 118.183594 187.410156 117.878906 187.847656 117.609375 C 188.289062 117.339844 188.726562 117.066406 189.199219 116.832031 C 189.671875 116.59375 190.144531 116.359375 190.621094 116.15625 C 191.09375 115.953125 191.601562 115.785156 192.105469 115.648438 C 192.613281 115.511719 193.121094 115.378906 193.628906 115.277344 C 194.136719 115.175781 194.640625 115.109375 195.183594 115.039062 C 195.691406 114.972656 196.230469 114.972656 196.738281 114.972656 C 197.246094 114.972656 197.785156 115.007812 198.292969 115.039062 C 198.800781 115.074219 199.339844 115.175781 199.847656 115.277344 C 200.355469 115.378906 200.863281 115.511719 201.367188 115.648438 C 201.875 115.785156 202.347656 115.988281 202.855469 116.15625 C 203.328125 116.359375 203.800781 116.5625 204.277344 116.832031 C 204.75 117.066406 205.1875 117.339844 205.628906 117.609375 C 206.066406 117.878906 206.472656 118.21875 206.878906 118.523438 C 207.285156 118.859375 207.691406 119.199219 208.0625 119.570312 C 208.433594 119.941406 208.804688 120.3125 209.109375 120.71875 C 209.445312 121.125 209.75 121.53125 210.054688 121.96875 C 210.359375 122.410156 210.628906 122.847656 210.867188 123.289062 C 211.101562 123.726562 211.339844 124.199219 211.542969 124.707031 C 211.746094 125.179688 211.949219 125.6875 212.082031 126.160156 C 212.253906 126.667969 212.386719 127.175781 212.488281 127.683594 C 212.589844 128.1875 212.691406 128.695312 212.757812 129.238281 C 212.828125 129.742188 212.859375 130.285156 212.859375 130.792969 L 212.859375 165.742188 L 218.878906 165.742188 C 219.859375 165.269531 220.90625 164.898438 221.953125 164.660156 C 223.035156 164.425781 224.117188 164.289062 225.199219 164.289062 C 226.28125 164.289062 227.363281 164.425781 228.445312 164.660156 C 229.523438 164.898438 230.539062 165.269531 231.519531 165.742188 L 247.777344 165.742188 C 248.320312 165.742188 248.824219 165.777344 249.367188 165.808594 C 249.90625 165.878906 250.414062 165.945312 250.921875 166.046875 C 251.429688 166.148438 251.9375 166.285156 252.441406 166.417969 C 252.949219 166.585938 253.457031 166.757812 253.929688 166.960938 C 254.402344 167.164062 254.910156 167.398438 255.347656 167.636719 C 255.824219 167.871094 256.261719 168.140625 256.703125 168.445312 C 257.140625 168.75 257.582031 169.054688 257.984375 169.394531 C 258.390625 169.730469 258.796875 170.070312 259.167969 170.441406 C 259.539062 170.8125 259.914062 171.21875 260.21875 171.625 C 260.554688 172.03125 260.859375 172.46875 261.164062 172.910156 C 261.46875 173.347656 261.738281 173.789062 261.976562 174.261719 C 262.210938 174.734375 262.449219 175.207031 262.652344 175.679688 C 262.855469 176.152344 263.023438 176.660156 263.191406 177.167969 C 263.359375 177.675781 263.460938 178.179688 263.5625 178.6875 C 263.664062 179.195312 263.730469 179.734375 263.800781 180.242188 C 263.867188 180.785156 263.867188 181.292969 263.867188 181.832031 C 263.867188 182.8125 263.765625 183.792969 263.597656 184.738281 C 268.160156 185.652344 271.980469 187.441406 274.210938 191.433594 C 274.347656 191.632812 274.414062 191.871094 274.550781 192.109375 L 274.988281 190.824219 C 275.15625 190.28125 275.328125 189.742188 275.460938 189.199219 C 275.597656 188.660156 275.730469 188.117188 275.832031 187.542969 C 275.933594 187.003906 276.035156 186.429688 276.136719 185.886719 C 276.238281 185.347656 276.273438 184.773438 276.339844 184.199219 C 276.375 183.625 276.40625 183.082031 276.441406 182.507812 C 276.441406 181.933594 276.441406 181.394531 276.441406 180.816406 C 276.40625 180.242188 276.375 179.703125 276.339844 179.128906 C 276.304688 178.554688 276.207031 178.011719 276.136719 177.4375 C 276.035156 176.863281 275.933594 176.324219 275.832031 175.78125 C 275.699219 175.242188 275.5625 174.667969 275.425781 174.125 C 275.292969 173.585938 275.125 173.042969 274.921875 172.503906 C 274.75 171.960938 274.550781 171.453125 274.3125 170.914062 C 274.109375 170.40625 273.871094 169.867188 273.636719 169.359375 C 273.398438 168.851562 273.128906 168.34375 272.859375 167.871094 C 272.589844 167.398438 272.285156 166.890625 271.980469 166.417969 C 271.675781 165.945312 271.371094 165.472656 271.035156 165.03125 C 270.695312 164.558594 270.359375 164.121094 269.984375 163.679688 C 269.613281 163.242188 269.242188 162.800781 268.871094 162.394531 C 268.5 161.992188 268.09375 161.585938 267.6875 161.179688 C 267.28125 160.773438 266.875 160.402344 266.4375 160.03125 C 265.996094 159.660156 265.558594 159.320312 265.117188 158.980469 C 264.679688 158.644531 264.207031 158.304688 263.730469 158.003906 C 263.257812 157.699219 262.785156 157.394531 262.3125 157.089844 C 261.839844 156.820312 261.332031 156.515625 260.824219 156.277344 C 260.320312 156.007812 259.8125 155.769531 259.304688 155.535156 C 258.796875 155.296875 258.257812 155.09375 257.714844 154.890625 C 257.175781 154.6875 256.667969 154.519531 256.128906 154.351562 C 255.585938 154.183594 255.046875 154.046875 254.503906 153.910156 C 253.964844 153.777344 253.390625 153.675781 252.847656 153.574219 C 252.308594 153.472656 251.734375 153.40625 251.160156 153.335938 C 250.582031 153.269531 250.042969 153.234375 249.46875 153.203125 C 248.894531 153.167969 248.351562 153.132812 247.777344 153.167969 L 225.402344 153.167969 L 225.402344 130.792969 C 225.402344 129.84375 225.332031 128.933594 225.234375 128.019531 C 225.132812 127.105469 224.960938 126.195312 224.792969 125.28125 C 224.589844 124.371094 224.355469 123.492188 224.082031 122.578125 C 223.8125 121.699219 223.476562 120.820312 223.101562 119.976562 C 222.730469 119.128906 222.324219 118.285156 221.886719 117.472656 C 221.445312 116.664062 220.941406 115.851562 220.433594 115.109375 C 219.890625 114.332031 219.351562 113.585938 218.742188 112.875 C 218.132812 112.167969 217.527344 111.492188 216.851562 110.816406 C 216.171875 110.171875 215.496094 109.53125 214.753906 108.957031 C 214.042969 108.382812 213.265625 107.808594 212.488281 107.300781 C 211.710938 106.792969 210.902344 106.320312 210.089844 105.878906 C 209.277344 105.441406 208.433594 105.070312 207.554688 104.695312 C 206.710938 104.359375 205.832031 104.019531 204.917969 103.785156 C 204.039062 103.515625 203.125 103.277344 202.214844 103.109375 C 201.300781 102.9375 200.386719 102.804688 199.441406 102.703125 C 198.628906 102.566406 197.71875 102.535156 196.773438 102.535156 C 195.824219 102.535156 194.914062 102.566406 194 102.667969 C 193.085938 102.769531 192.140625 102.90625 191.226562 103.074219 C 190.316406 103.242188 189.402344 103.480469 188.523438 103.75 C 187.644531 104.019531 186.765625 104.324219 185.886719 104.664062 C 185.042969 105 184.199219 105.40625 183.351562 105.847656 C 182.542969 106.285156 181.730469 106.757812 180.953125 107.265625 C 180.175781 107.773438 179.429688 108.3125 178.6875 108.921875 C 177.976562 109.496094 177.269531 110.140625 176.59375 110.78125 C 175.917969 111.421875 175.308594 112.132812 174.699219 112.84375 C 174.089844 113.554688 173.550781 114.296875 173.007812 115.074219 C 172.46875 115.851562 171.996094 116.628906 171.554688 117.441406 C 171.117188 118.25 170.710938 119.097656 170.339844 119.941406 C 169.96875 120.785156 169.664062 121.664062 169.359375 122.542969 C 169.089844 123.421875 168.851562 124.335938 168.648438 125.25 C 168.445312 126.160156 168.3125 127.074219 168.210938 127.984375 C 168.109375 128.898438 168.039062 129.84375 168.039062 130.757812 L 168.039062 131.296875 C 171.453125 139.546875 173.382812 152.425781 170.777344 158.710938 Z M 170.777344 158.710938 " fill-opacity="1" fill-rule="nonzero"/></g><path fill="#1bbfaf" d="M 126.09375 144.007812 C 126.632812 148.132812 130.859375 155.535156 135.859375 161.179688 C 137.921875 163.511719 141 166.484375 143.90625 167.566406 C 145.222656 168.007812 146.542969 168.3125 147.929688 168.445312 C 149.3125 168.582031 150.667969 168.546875 152.050781 168.34375 L 153.503906 171.65625 C 153.605469 171.894531 153.742188 172.132812 153.910156 172.332031 C 154.082031 172.535156 154.25 172.738281 154.484375 172.910156 C 154.6875 173.078125 154.925781 173.210938 155.160156 173.3125 C 155.398438 173.414062 155.667969 173.484375 155.9375 173.550781 L 156.074219 174.023438 L 157.59375 173.347656 C 157.730469 173.789062 157.898438 174.160156 158.070312 174.53125 C 159.082031 176.828125 160.433594 178.957031 162.089844 180.816406 C 163.542969 182.40625 165.167969 183.828125 166.957031 185.007812 C 168.75 186.191406 170.675781 187.140625 172.738281 187.847656 C 178.652344 189.976562 183.621094 189.269531 188.015625 188.625 C 195.519531 187.542969 200.488281 186.835938 207.316406 201.234375 C 211.238281 209.550781 216.445312 217.085938 221.917969 222.527344 C 228.445312 228.984375 235.339844 232.433594 241.929688 232.601562 C 251.699219 232.804688 260.25 226.078125 267.417969 212.625 C 272.285156 203.464844 273.46875 197.3125 271.203125 193.289062 C 268.398438 188.289062 261.46875 187.917969 253.421875 187.441406 C 247.304688 187.105469 240.375 186.699219 234.898438 184.128906 C 235 183.925781 235.101562 183.726562 235.203125 183.554688 C 235.304688 183.351562 235.371094 183.148438 235.472656 182.949219 C 235.542969 182.746094 235.644531 182.542969 235.710938 182.339844 C 235.777344 182.136719 235.847656 181.933594 235.914062 181.695312 C 235.980469 181.492188 236.015625 181.257812 236.082031 181.054688 C 236.117188 180.851562 236.148438 180.613281 236.183594 180.414062 C 236.21875 180.175781 236.25 179.972656 236.25 179.734375 C 236.285156 179.5 236.285156 179.296875 236.285156 179.058594 C 236.285156 178.824219 236.285156 178.621094 236.285156 178.382812 C 236.285156 178.148438 236.25 177.945312 236.25 177.707031 C 236.21875 177.472656 236.183594 177.269531 236.148438 177.066406 C 236.117188 176.863281 236.082031 176.625 236.015625 176.421875 C 235.980469 176.222656 235.914062 175.984375 235.847656 175.78125 C 235.777344 175.578125 235.710938 175.375 235.644531 175.140625 C 235.574219 174.9375 235.472656 174.734375 235.40625 174.53125 C 235.304688 174.328125 235.238281 174.125 235.136719 173.921875 C 235.035156 173.71875 234.933594 173.515625 234.832031 173.347656 C 234.730469 173.144531 234.59375 172.976562 234.492188 172.773438 C 234.359375 172.605469 234.257812 172.402344 234.121094 172.230469 C 233.988281 172.0625 233.851562 171.894531 233.714844 171.726562 C 233.582031 171.554688 233.414062 171.386719 233.277344 171.253906 C 233.109375 171.082031 232.972656 170.949219 232.804688 170.777344 C 232.636719 170.644531 232.464844 170.476562 232.296875 170.339844 C 232.128906 170.203125 231.957031 170.070312 231.757812 169.933594 C 231.585938 169.796875 231.382812 169.699219 231.214844 169.5625 C 231.011719 169.460938 230.84375 169.324219 230.640625 169.222656 C 230.4375 169.121094 230.234375 169.019531 230.03125 168.917969 C 229.828125 168.820312 229.625 168.75 229.425781 168.648438 C 229.222656 168.582031 229.019531 168.480469 228.816406 168.414062 C 228.613281 168.34375 228.375 168.277344 228.171875 168.242188 C 227.96875 168.175781 227.734375 168.140625 227.53125 168.109375 C 227.328125 168.074219 227.089844 168.039062 226.890625 168.007812 C 226.6875 167.972656 226.449219 167.941406 226.210938 167.941406 C 225.976562 167.941406 225.773438 167.90625 225.535156 167.90625 C 225.300781 167.90625 225.097656 167.90625 224.859375 167.90625 C 224.625 167.90625 224.421875 167.941406 224.183594 167.972656 C 223.949219 168.007812 223.746094 168.039062 223.542969 168.074219 C 223.339844 168.109375 223.101562 168.140625 222.898438 168.210938 C 222.699219 168.277344 222.460938 168.3125 222.257812 168.378906 C 222.054688 168.445312 221.851562 168.515625 221.617188 168.582031 C 221.414062 168.648438 221.210938 168.75 221.007812 168.820312 C 220.804688 168.917969 220.601562 168.988281 220.398438 169.089844 C 220.195312 169.191406 219.992188 169.292969 219.824219 169.425781 C 219.65625 169.5625 219.453125 169.664062 219.25 169.796875 C 219.082031 169.933594 218.878906 170.070312 218.707031 170.203125 C 218.539062 170.339844 218.371094 170.476562 218.203125 170.609375 C 218.03125 170.746094 217.863281 170.914062 217.730469 171.050781 C 217.558594 171.21875 217.425781 171.355469 217.289062 171.523438 C 217.152344 171.691406 216.984375 171.859375 216.851562 172.03125 C 216.714844 172.199219 216.578125 172.367188 216.445312 172.570312 C 216.308594 172.738281 216.207031 172.941406 216.070312 173.109375 C 215.972656 173.3125 215.835938 173.484375 215.734375 173.6875 C 215.632812 173.886719 215.53125 174.089844 215.429688 174.292969 C 215.328125 174.496094 215.261719 174.699219 215.160156 174.902344 C 215.09375 175.105469 215.023438 175.308594 214.957031 175.546875 C 214.890625 175.746094 214.820312 175.949219 214.789062 176.1875 C 214.71875 176.390625 214.6875 176.625 214.652344 176.828125 C 214.617188 177.03125 214.585938 177.269531 214.550781 177.472656 C 214.515625 177.707031 214.515625 177.910156 214.484375 178.148438 C 214.484375 178.382812 214.449219 178.585938 214.449219 178.824219 C 214.449219 179.058594 214.449219 179.261719 214.484375 179.5 C 214.484375 179.734375 214.515625 179.9375 214.550781 180.175781 C 214.585938 180.414062 214.617188 180.613281 214.652344 180.816406 C 214.6875 181.019531 214.753906 181.257812 214.789062 181.460938 C 214.820312 181.664062 214.890625 181.898438 214.957031 182.101562 C 215.023438 182.304688 215.09375 182.507812 215.160156 182.746094 C 215.226562 182.949219 215.328125 183.148438 215.429688 183.351562 C 215.53125 183.554688 215.632812 183.757812 215.734375 183.960938 C 215.835938 184.164062 215.9375 184.332031 216.070312 184.535156 C 216.171875 184.738281 216.308594 184.90625 216.445312 185.078125 C 216.578125 185.246094 216.714844 185.449219 216.851562 185.617188 C 216.984375 185.785156 217.121094 185.957031 217.289062 186.125 C 217.425781 186.292969 217.59375 186.460938 217.761719 186.597656 C 217.929688 186.765625 218.066406 186.902344 218.234375 187.039062 C 218.40625 187.171875 218.574219 187.308594 218.742188 187.441406 C 218.910156 187.578125 219.082031 187.714844 219.285156 187.847656 C 219.453125 187.984375 219.65625 188.085938 219.859375 188.21875 C 220.0625 188.320312 220.230469 188.457031 220.433594 188.558594 C 220.636719 188.660156 220.839844 188.761719 221.042969 188.828125 C 221.242188 188.929688 221.445312 188.996094 221.648438 189.066406 C 221.851562 189.132812 222.054688 189.199219 222.292969 189.269531 C 222.496094 189.335938 222.730469 189.402344 222.933594 189.4375 C 223.136719 189.503906 223.375 189.539062 223.578125 189.574219 C 223.777344 189.605469 224.015625 189.640625 224.21875 189.675781 C 224.453125 189.707031 224.65625 189.707031 224.894531 189.742188 C 225.132812 189.742188 225.332031 189.742188 225.570312 189.742188 C 225.808594 189.742188 226.011719 189.742188 226.246094 189.707031 C 226.484375 189.707031 226.6875 189.675781 226.921875 189.640625 C 227.125 189.605469 227.363281 189.574219 227.566406 189.539062 C 227.765625 189.503906 228.003906 189.4375 228.207031 189.402344 C 228.410156 189.335938 228.644531 189.300781 228.847656 189.234375 C 229.050781 189.167969 229.253906 189.097656 229.457031 188.996094 C 229.660156 188.929688 229.863281 188.828125 230.066406 188.726562 C 230.269531 188.625 230.472656 188.523438 230.675781 188.421875 C 230.878906 188.320312 231.046875 188.21875 231.25 188.085938 C 231.453125 187.984375 231.621094 187.847656 231.789062 187.714844 C 238.414062 191.230469 246.289062 191.667969 253.289062 192.074219 C 259.675781 192.445312 265.691406 192.785156 267.246094 195.523438 C 268.195312 197.179688 268.296875 201.097656 263.394531 210.359375 C 257.140625 222.15625 249.976562 228.074219 242.167969 227.871094 C 229.59375 227.597656 217.898438 212.253906 211.710938 199.207031 C 203.398438 181.695312 195.316406 182.847656 187.511719 183.960938 C 183.488281 184.535156 179.328125 185.144531 174.496094 183.421875 C 166.890625 180.683594 163.511719 175.511719 162.023438 171.421875 L 162.363281 171.285156 C 162.5625 171.21875 162.734375 171.082031 162.902344 170.980469 C 163.070312 170.878906 163.242188 170.710938 163.375 170.574219 C 163.511719 170.441406 163.644531 170.273438 163.78125 170.070312 C 163.882812 169.898438 163.984375 169.695312 164.050781 169.496094 C 164.121094 169.292969 164.1875 169.089844 164.222656 168.886719 C 164.253906 168.683594 164.289062 168.480469 164.289062 168.242188 C 164.289062 168.039062 164.253906 167.839844 164.222656 167.636719 C 164.1875 167.433594 164.121094 167.230469 164.019531 167.027344 L 162.5625 163.714844 C 163.644531 162.835938 164.59375 161.855469 165.4375 160.773438 C 166.28125 159.691406 166.992188 158.476562 167.535156 157.222656 C 170.304688 150.53125 166.722656 133.429688 162.363281 128.15625 C 160.367188 125.789062 157.359375 124.4375 153.574219 124.199219 C 153.335938 123.761719 153.03125 123.355469 152.660156 122.984375 C 152.289062 122.613281 151.917969 122.308594 151.476562 122.039062 C 151.039062 121.765625 150.566406 121.5625 150.058594 121.429688 C 149.550781 121.292969 149.042969 121.226562 148.535156 121.226562 C 148.300781 121.226562 148.0625 121.226562 147.828125 121.257812 C 147.589844 121.292969 147.355469 121.328125 147.152344 121.394531 C 146.914062 121.460938 146.710938 121.53125 146.476562 121.597656 C 146.273438 121.664062 146.035156 121.765625 145.832031 121.902344 C 145.628906 122.003906 145.425781 122.136719 145.222656 122.273438 C 145.019531 122.410156 144.851562 122.542969 144.683594 122.714844 C 144.515625 122.882812 144.34375 123.050781 144.210938 123.21875 C 144.074219 123.390625 143.90625 123.59375 143.804688 123.792969 C 143.667969 123.996094 143.566406 124.199219 143.464844 124.402344 C 143.363281 124.605469 143.265625 124.84375 143.195312 125.046875 C 143.128906 125.28125 143.0625 125.484375 142.992188 125.722656 C 142.960938 125.957031 142.925781 126.195312 142.890625 126.429688 C 142.859375 126.667969 142.859375 126.90625 142.890625 127.140625 C 142.890625 127.378906 142.925781 127.613281 142.960938 127.851562 C 142.992188 128.085938 143.0625 128.324219 143.128906 128.527344 C 143.195312 128.761719 143.265625 128.964844 143.363281 129.167969 C 143.601562 129.675781 143.871094 130.148438 144.242188 130.589844 C 144.617188 131.027344 145.019531 131.367188 145.496094 131.671875 C 145.96875 131.976562 146.476562 132.210938 147.015625 132.347656 C 147.554688 132.480469 148.097656 132.582031 148.671875 132.550781 C 149.246094 132.550781 149.789062 132.449219 150.328125 132.277344 C 150.867188 132.109375 151.375 131.839844 151.816406 131.535156 C 152.289062 131.199219 152.695312 130.824219 153.03125 130.386719 C 153.371094 129.945312 153.640625 129.441406 153.84375 128.933594 C 155.972656 129.136719 157.5625 129.84375 158.609375 131.027344 L 158.710938 131.164062 C 160.265625 133.023438 161.957031 137.824219 162.96875 143.0625 C 163.949219 148.300781 164.050781 153.335938 163.171875 155.433594 C 161.585938 159.285156 157.222656 161.855469 155.871094 162.597656 C 154.382812 163.105469 149.550781 164.558594 145.664062 163.105469 C 143.535156 162.328125 139.953125 158.878906 136.738281 154.519531 C 133.527344 150.160156 131.195312 145.730469 130.890625 143.296875 C 130.691406 141.675781 131.230469 139.984375 132.582031 138.195312 C 132.785156 138.296875 133.023438 138.363281 133.257812 138.398438 C 133.496094 138.464844 133.699219 138.5 133.933594 138.53125 C 134.171875 138.566406 134.40625 138.566406 134.644531 138.601562 C 134.882812 138.601562 135.117188 138.601562 135.355469 138.566406 C 135.589844 138.53125 135.828125 138.5 136.03125 138.429688 C 136.265625 138.363281 136.46875 138.296875 136.707031 138.226562 C 136.910156 138.160156 137.144531 138.058594 137.347656 137.957031 C 137.550781 137.855469 137.753906 137.722656 137.957031 137.585938 C 138.160156 137.449219 138.328125 137.316406 138.496094 137.144531 C 138.667969 136.976562 138.835938 136.84375 139.003906 136.640625 C 139.171875 136.46875 139.308594 136.265625 139.445312 136.097656 C 139.578125 135.894531 139.679688 135.691406 139.816406 135.488281 C 139.917969 135.289062 140.019531 135.085938 140.085938 134.847656 C 140.152344 134.644531 140.222656 134.410156 140.289062 134.171875 C 140.355469 133.933594 140.390625 133.734375 140.390625 133.496094 C 140.425781 133.257812 140.425781 133.023438 140.425781 132.785156 C 140.425781 132.550781 140.390625 132.3125 140.355469 132.078125 C 140.324219 131.839844 140.289062 131.601562 140.222656 131.398438 C 140.152344 131.164062 140.085938 130.960938 139.984375 130.722656 C 139.882812 130.519531 139.78125 130.285156 139.679688 130.082031 C 139.578125 129.878906 139.445312 129.675781 139.308594 129.507812 C 139.171875 129.304688 139.039062 129.136719 138.871094 128.964844 C 138.699219 128.796875 138.53125 128.628906 138.363281 128.492188 C 138.195312 128.359375 137.992188 128.222656 137.789062 128.085938 C 137.585938 127.953125 137.382812 127.851562 137.179688 127.75 C 136.976562 127.648438 136.738281 127.546875 136.539062 127.480469 C 136.300781 127.410156 136.097656 127.34375 135.859375 127.308594 C 135.625 127.277344 135.386719 127.242188 135.183594 127.207031 C 134.949219 127.175781 134.710938 127.175781 134.476562 127.207031 C 134.238281 127.207031 134.003906 127.242188 133.765625 127.277344 C 133.527344 127.308594 133.292969 127.378906 133.089844 127.445312 C 132.851562 127.511719 132.648438 127.582031 132.449219 127.683594 C 132.109375 127.816406 131.804688 127.984375 131.5 128.1875 C 131.195312 128.390625 130.925781 128.628906 130.691406 128.863281 C 130.417969 129.136719 130.214844 129.40625 130.011719 129.675781 C 129.8125 129.945312 129.640625 130.285156 129.507812 130.621094 C 129.371094 130.960938 129.234375 131.296875 129.167969 131.636719 C 129.101562 131.976562 129.035156 132.347656 129.035156 132.683594 C 129.035156 133.054688 129.035156 133.394531 129.101562 133.765625 C 129.167969 134.105469 129.234375 134.476562 129.371094 134.8125 C 126.734375 137.824219 125.6875 140.964844 126.09375 144.007812 Z M 126.09375 144.007812 " fill-opacity="1" fill-rule="nonzero"/></svg>