<?xml version="1.0" encoding="utf-8"?>
<!-- Generator: Adobe Illustrator 27.5.0, SVG Export Plug-In . SVG Version: 6.00 Build 0)  -->
<svg version="1.1" id="PRINT" xmlns="http://www.w3.org/2000/svg" xmlns:xlink="http://www.w3.org/1999/xlink" x="0px" y="0px"
	 viewBox="0 0 500 500" style="enable-background:new 0 0 500 500;" xml:space="preserve">
<g>
	
		<rect id="CUSTOM-Background_00000124871819329746339780000006006541069139115702_" style="fill:#F7F6F7;" width="500" height="500"/>
	<text transform="matrix(1 0 0 1 65.4761 303.5043)"><tspan x="0" y="0" style="fill:#363FB2; font-family:'Baloo2-SemiBold'; font-size:81.6853px;">Heart</tspan><tspan x="187.302" y="0" style="fill:#6A71D3; font-family:'Baloo2-SemiBold'; font-size:81.6853px;">Care</tspan></text>
	
		<text transform="matrix(1 0 0 1 153.2305 337.4467)" style="fill:#6A71D3; font-family:'Baloo2-Regular'; font-size:22.7709px; letter-spacing:1;">High Quality Clinic</text>
	<g id="CUSTOM-group">
		<path style="fill:#6A71D3;" d="M251.715,143.47c-6.914,0-13.415,1.753-19.089,4.855c-1.166,0.637-2.308,1.332-3.399,2.076
			c-1.059,0.728-2.084,1.497-3.06,2.316c0,0-0.008,0.008-0.008,0c-1.026,0.86-1.993,1.762-2.92,2.704
			c-7.088,7.204-11.447,17.079-11.447,27.972c0,22.05,17.873,39.923,39.923,39.923c22.05,0,39.923-17.873,39.923-39.923
			C291.638,161.352,273.765,143.47,251.715,143.47z M243.816,189.324h-13.829v-11.852h13.829c1.092,0,1.977-0.885,1.977-1.977
			v-13.829h11.852v13.829c0,1.092,0.885,1.977,1.969,1.977h13.829v11.852h-13.829c-1.083,0-1.969,0.885-1.969,1.977v13.829h-11.852
			V191.3C245.793,190.209,244.908,189.324,243.816,189.324z"/>
		<g>
			<g>
				<g>
					<g>
						<path style="fill:#363FB2;" d="M227.403,149.201c-1.091,0-1.977,0.885-1.977,1.977c0,1.091,0.886,1.977,1.977,1.977
							c1.091,0,1.977-0.886,1.977-1.977C229.379,150.086,228.494,149.201,227.403,149.201z"/>
					</g>
				</g>
				<g>
					<g>
						<path style="fill:#363FB2;" d="M251.715,127.519c-30.112,0-55.875,25.717-55.875,55.875c0,30.131,25.717,55.884,55.875,55.884
							c30.121,0,55.875-25.717,55.875-55.884C307.59,153.272,281.882,127.519,251.715,127.519z M251.715,234.909
							c-27.919,0-51.515-23.587-51.515-51.516c0-27.919,23.596-51.506,51.515-51.506s51.516,23.587,51.516,51.506
							C303.231,211.322,279.634,234.909,251.715,234.909z"/>
					</g>
				</g>
				<g>
					<g>
						<path style="fill:#363FB2;" d="M251.716,141.294c-6.338,0-13.043,1.463-18.396,4.013c-0.985,0.47-1.404,1.649-0.934,2.635
							c0.469,0.985,1.649,1.404,2.635,0.934c4.84-2.306,10.925-3.629,16.695-3.629c20.679,0,38.15,17.471,38.15,38.15
							c0,20.68-17.471,38.15-38.15,38.15c-20.68,0-38.15-17.471-38.15-38.15c0-9.446,3.465-18.756,9.508-25.543
							c0.726-0.815,0.654-2.065-0.162-2.791c-0.816-0.726-2.065-0.653-2.791,0.162c-6.678,7.502-10.508,17.77-10.508,28.172
							c0,22.876,19.194,42.104,42.104,42.104c22.876,0,42.104-19.194,42.104-42.104
							C293.819,160.522,274.625,141.294,251.716,141.294z"/>
					</g>
				</g>
				<g>
					<g>
						<path style="fill:#363FB2;" d="M275.434,173.512h-13.837v-13.838c0-1.092-0.886-1.978-1.978-1.978h-15.807
							c-1.092,0-1.978,0.886-1.978,1.978v13.838h-13.838c-1.092,0-1.978,0.885-1.978,1.978v15.815c0,1.092,0.886,1.978,1.978,1.978
							h13.838v13.838c0,1.084,0.886,1.97,1.978,1.97h15.807c1.092,0,1.978-0.885,1.978-1.97v-13.838h13.837
							c1.092,0,1.978-0.886,1.978-1.978V175.49C277.412,174.398,276.527,173.512,275.434,173.512z M273.456,189.328h-13.837
							c-1.084,0-1.97,0.886-1.97,1.978v13.838h-11.86v-13.838c0-1.092-0.885-1.978-1.978-1.978h-13.838v-11.859h13.838
							c1.093,0,1.978-0.886,1.978-1.978v-13.838h11.86v13.838c0,1.092,0.886,1.978,1.97,1.978h13.837V189.328z"/>
					</g>
				</g>
			</g>
		</g>
	</g>
</g>
</svg>
