<?xml version="1.0" encoding="utf-8"?>
<!-- Generator: Adobe Illustrator 27.5.0, SVG Export Plug-In . SVG Version: 6.00 Build 0)  -->
<svg version="1.1" id="PRINT" xmlns="http://www.w3.org/2000/svg" xmlns:xlink="http://www.w3.org/1999/xlink" x="0px" y="0px"
	 viewBox="0 0 500 500" style="enable-background:new 0 0 500 500;" xml:space="preserve">
<g>
	
		<rect id="CUSTOM-Background_00000168113580489032856960000005667904413371055026_" style="fill:#294572;" width="500" height="500"/>
	
		<text transform="matrix(1 0 0 1 62.9644 291.4586)" style="fill:#FFFFFF; font-family:'DidactGothic-Regular'; font-size:73.855px;">GoodHealth</text>
	
		<text transform="matrix(1 0 0 1 166.9717 326.7027)" style="fill:#78FFD6; font-family:'Poppins-Light'; font-size:24.6863px; letter-spacing:2;">Private clinic</text>
	<g id="CUSTOM-group_00000034787639312921406290000016651325064591597189_">
		<linearGradient id="SVGID_1_" gradientUnits="userSpaceOnUse" x1="235.5061" y1="152.1171" x2="231.2766" y2="236.0035">
			<stop  offset="0" style="stop-color:#A8FF78"/>
			<stop  offset="1" style="stop-color:#78FFD6"/>
		</linearGradient>
		<path style="fill:url(#SVGID_1_);" d="M228.557,180.323c0.752,0.752,1.971,0.752,2.723,0c0.752-0.752,0.752-1.971,0-2.723
			l-1.225-1.225c-1.455-1.455-2.256-3.389-2.256-5.446c0-4.247,3.455-7.702,7.702-7.702c2.057,0,3.992,0.801,5.446,2.256
			l1.226,1.226c0.752,0.752,1.971,0.752,2.723,0c0.752-0.752,0.752-1.971,0-2.723l-1.226-1.226
			c-2.182-2.182-5.083-3.384-8.169-3.384c-6.371,0-11.554,5.183-11.554,11.554c0,3.086,1.202,5.987,3.384,8.17L228.557,180.323z"/>
		
			<linearGradient id="SVGID_00000148658580380109452590000014288196463040669881_" gradientUnits="userSpaceOnUse" x1="250.1671" y1="152.8563" x2="245.9375" y2="236.7428">
			<stop  offset="0" style="stop-color:#A8FF78"/>
			<stop  offset="1" style="stop-color:#78FFD6"/>
		</linearGradient>
		<path style="fill:url(#SVGID_00000148658580380109452590000014288196463040669881_);" d="M249.957,199l19.902-19.902
			c2.182-2.182,3.384-5.084,3.384-8.17c0-6.371-5.183-11.554-11.553-11.554c-3.086,0-5.987,1.202-8.17,3.384l-26.188,26.188
			c-2.182,2.182-3.384,5.083-3.384,8.17c0,6.371,5.183,11.554,11.554,11.554c3.086,0,5.987-1.202,8.17-3.384L249.957,199
			C249.957,199,249.957,199,249.957,199C249.957,199,249.957,199,249.957,199L249.957,199z M248.596,173.129l10.893,10.893
			l-10.893,10.893l-10.893-10.893L248.596,173.129z M256.243,165.482c1.455-1.455,3.389-2.256,5.447-2.256
			c4.247,0,7.702,3.455,7.702,7.702c0,2.057-0.801,3.992-2.256,5.446l-4.924,4.924l-10.893-10.893L256.243,165.482z
			 M240.948,202.563c-1.455,1.455-3.389,2.256-5.446,2.256c-4.247,0-7.702-3.455-7.702-7.702c0-2.057,0.801-3.992,2.256-5.447
			l4.924-4.924l10.893,10.893L240.948,202.563z"/>
		
			<linearGradient id="SVGID_00000139975379684791799780000016732567288715928751_" gradientUnits="userSpaceOnUse" x1="264.8281" y1="153.5954" x2="260.5985" y2="237.4818">
			<stop  offset="0" style="stop-color:#A8FF78"/>
			<stop  offset="1" style="stop-color:#78FFD6"/>
		</linearGradient>
		<path style="fill:url(#SVGID_00000139975379684791799780000016732567288715928751_);" d="M268.634,187.721
			c-0.752-0.752-1.971-0.752-2.723,0c-0.752,0.752-0.752,1.971,0,2.723l1.225,1.225c1.455,1.455,2.256,3.389,2.256,5.447
			c0,4.247-3.455,7.702-7.702,7.702c-2.057,0-3.992-0.801-5.446-2.256l-1.226-1.226c-0.752-0.752-1.971-0.752-2.723,0
			c-0.752,0.752-0.752,1.971,0,2.723l1.226,1.226c2.182,2.182,5.084,3.384,8.17,3.384c6.371,0,11.553-5.183,11.553-11.554
			c0-3.086-1.202-5.987-3.384-8.17L268.634,187.721z"/>
		
			<linearGradient id="SVGID_00000080200894755522016040000007268152482181139842_" gradientUnits="userSpaceOnUse" x1="249.9734" y1="152.8465" x2="245.7438" y2="236.733">
			<stop  offset="0" style="stop-color:#A8FF78"/>
			<stop  offset="1" style="stop-color:#78FFD6"/>
		</linearGradient>
		<circle style="fill:url(#SVGID_00000080200894755522016040000007268152482181139842_);" cx="248.596" cy="180.171" r="1.926"/>
		
			<linearGradient id="SVGID_00000124861878712792334320000003355481904652885914_" gradientUnits="userSpaceOnUse" x1="250.3607" y1="152.866" x2="246.1312" y2="236.7526">
			<stop  offset="0" style="stop-color:#A8FF78"/>
			<stop  offset="1" style="stop-color:#78FFD6"/>
		</linearGradient>
		<circle style="fill:url(#SVGID_00000124861878712792334320000003355481904652885914_);" cx="248.596" cy="187.873" r="1.926"/>
		
			<linearGradient id="SVGID_00000031915302366264432000000004580107619099924907_" gradientUnits="userSpaceOnUse" x1="246.3256" y1="152.6625" x2="242.0961" y2="236.5491">
			<stop  offset="0" style="stop-color:#A8FF78"/>
			<stop  offset="1" style="stop-color:#78FFD6"/>
		</linearGradient>
		<circle style="fill:url(#SVGID_00000031915302366264432000000004580107619099924907_);" cx="244.744" cy="184.022" r="1.926"/>
		
			<linearGradient id="SVGID_00000130609899239620354060000002296082359611097512_" gradientUnits="userSpaceOnUse" x1="254.0085" y1="153.0499" x2="249.779" y2="236.9365">
			<stop  offset="0" style="stop-color:#A8FF78"/>
			<stop  offset="1" style="stop-color:#78FFD6"/>
		</linearGradient>
		<circle style="fill:url(#SVGID_00000130609899239620354060000002296082359611097512_);" cx="252.447" cy="184.022" r="1.926"/>
	</g>
	<g id="CUSTOM-group">
		<path style="fill:#FFFFFF;" d="M353.893,238.559c-0.618,0-1.225-0.297-1.597-0.847c-16.757-24.803-41.87-42.525-70.717-49.902
			c-1.029-0.263-1.651-1.312-1.388-2.342c0.263-1.03,1.31-1.656,2.343-1.388c29.759,7.609,55.668,25.891,72.953,51.476
			c0.595,0.881,0.364,2.078-0.518,2.674C354.639,238.453,354.264,238.559,353.893,238.559z"/>
		<path style="fill:#FFFFFF;" d="M148.744,238.559c-0.37,0-0.746-0.107-1.076-0.33c-0.881-0.595-1.112-1.792-0.518-2.674
			c17.247-25.529,43.092-43.793,72.775-51.43c1.028-0.266,2.079,0.355,2.344,1.385c0.265,1.03-0.355,2.079-1.385,2.344
			c-28.77,7.402-53.823,25.107-70.542,49.856C149.969,238.262,149.362,238.559,148.744,238.559z"/>
	</g>
</g>
</svg>
